<?xml version="1.0" encoding="UTF-8"?>
<svg xmlns="http://www.w3.org/2000/svg" xmlns:xlink="http://www.w3.org/1999/xlink" viewBox="0 0 291.35 290.75">
  <defs>
    <style>
      .cls-1 {
        fill: url(#New_Gradient_Swatch_68-2);
      }

      .cls-1, .cls-2, .cls-3, .cls-4, .cls-5, .cls-6, .cls-7, .cls-8, .cls-9, .cls-10, .cls-11, .cls-12, .cls-13, .cls-14, .cls-15, .cls-16, .cls-17, .cls-18, .cls-19, .cls-20, .cls-21, .cls-22, .cls-23, .cls-24, .cls-25, .cls-26, .cls-27, .cls-28, .cls-29, .cls-30 {
        fill-rule: evenodd;
      }

      .cls-1, .cls-6, .cls-11, .cls-13, .cls-16, .cls-18, .cls-24, .cls-27, .cls-29 {
        mix-blend-mode: screen;
      }

      .cls-1, .cls-6, .cls-11, .cls-13, .cls-16, .cls-18, .cls-29 {
        opacity: .4;
      }

      .cls-2 {
        fill: url(#radial-gradient);
      }

      .cls-3 {
        fill: url(#radial-gradient-13);
      }

      .cls-4 {
        fill: url(#radial-gradient-15);
      }

      .cls-5 {
        fill: url(#radial-gradient-8);
      }

      .cls-5, .cls-7, .cls-8, .cls-9, .cls-10, .cls-14, .cls-15, .cls-17, .cls-19, .cls-22, .cls-23, .cls-25, .cls-30 {
        mix-blend-mode: multiply;
      }

      .cls-6 {
        fill: url(#New_Gradient_Swatch_68-4);
      }

      .cls-7 {
        fill: url(#radial-gradient-19);
      }

      .cls-7, .cls-15, .cls-19, .cls-22, .cls-23, .cls-27, .cls-30 {
        opacity: .5;
      }

      .cls-31 {
        isolation: isolate;
      }

      .cls-8 {
        fill: url(#radial-gradient-12);
      }

      .cls-9 {
        fill: url(#radial-gradient-14);
      }

      .cls-10 {
        fill: url(#radial-gradient-4);
      }

      .cls-11 {
        fill: url(#New_Gradient_Swatch_68-5);
      }

      .cls-12 {
        fill: url(#radial-gradient-11);
      }

      .cls-13 {
        fill: url(#radial-gradient-22);
      }

      .cls-14 {
        fill: url(#radial-gradient-2);
      }

      .cls-15 {
        fill: url(#radial-gradient-17);
      }

      .cls-16 {
        fill: url(#New_Gradient_Swatch_68-3);
      }

      .cls-17 {
        fill: url(#radial-gradient-10);
      }

      .cls-18 {
        fill: url(#New_Gradient_Swatch_68-6);
      }

      .cls-19 {
        fill: url(#radial-gradient-18);
      }

      .cls-20 {
        fill: url(#radial-gradient-7);
      }

      .cls-21 {
        fill: url(#radial-gradient-3);
      }

      .cls-22 {
        fill: url(#radial-gradient-16);
      }

      .cls-23 {
        fill: url(#radial-gradient-21);
      }

      .cls-24 {
        fill: url(#radial-gradient-23);
      }

      .cls-25 {
        fill: url(#radial-gradient-6);
      }

      .cls-26 {
        fill: url(#radial-gradient-9);
      }

      .cls-27 {
        fill: url(#radial-gradient-24);
      }

      .cls-28 {
        fill: url(#radial-gradient-5);
      }

      .cls-29 {
        fill: url(#New_Gradient_Swatch_68);
      }

      .cls-30 {
        fill: url(#radial-gradient-20);
      }
    </style>
    <radialGradient id="radial-gradient" cx="145.82" cy="241.38" fx="145.82" fy="241.38" r="164.68" gradientUnits="userSpaceOnUse">
      <stop offset="0" stop-color="#0052cc"/>
      <stop offset=".23" stop-color="#1777da"/>
      <stop offset=".59" stop-color="#38abee"/>
      <stop offset=".85" stop-color="#4ccbfa"/>
      <stop offset="1" stop-color="#54d8ff"/>
    </radialGradient>
    <radialGradient id="radial-gradient-2" cx="135.6" cy="185.71" fx="135.6" fy="185.71" r="122.52" gradientUnits="userSpaceOnUse">
      <stop offset="0" stop-color="#0369d1"/>
      <stop offset="1" stop-color="#f5ffff"/>
    </radialGradient>
    <radialGradient id="radial-gradient-3" cx="194.96" cy="238.58" fx="194.96" fy="238.58" r="234.02" xlink:href="#radial-gradient"/>
    <radialGradient id="radial-gradient-4" cx="167.8" cy="138.73" fx="167.8" fy="138.73" r="172.68" xlink:href="#radial-gradient-2"/>
    <radialGradient id="radial-gradient-5" cx="220.28" cy="191.33" fx="220.28" fy="191.33" r="236.7" gradientUnits="userSpaceOnUse">
      <stop offset="0" stop-color="#0033b5"/>
      <stop offset=".31" stop-color="#0f6dd0"/>
      <stop offset=".63" stop-color="#1da1e9"/>
      <stop offset=".87" stop-color="#25c1f9"/>
      <stop offset="1" stop-color="#29ceff"/>
    </radialGradient>
    <radialGradient id="radial-gradient-6" cx="202.14" cy="104.3" fx="202.14" fy="104.3" r="161.53" xlink:href="#radial-gradient-2"/>
    <radialGradient id="radial-gradient-7" cx="256.78" cy="178.01" fx="256.78" fy="178.01" r="362.66" xlink:href="#radial-gradient"/>
    <radialGradient id="radial-gradient-8" cx="218.22" cy="44.36" fx="218.22" fy="44.36" r="200.38" xlink:href="#radial-gradient-2"/>
    <radialGradient id="radial-gradient-9" cx="205.12" cy="126.61" fx="205.12" fy="126.61" r="245.51" xlink:href="#radial-gradient"/>
    <radialGradient id="radial-gradient-10" cx="153.9" cy="50.45" fx="153.9" fy="50.45" r="109.97" xlink:href="#radial-gradient-2"/>
    <radialGradient id="radial-gradient-11" cx="147.23" cy="98.55" fx="147.23" fy="98.55" r="120.65" xlink:href="#radial-gradient-5"/>
    <radialGradient id="radial-gradient-12" cx="167.61" cy="29.53" fx="167.61" fy="29.53" r="114.41" xlink:href="#radial-gradient-2"/>
    <radialGradient id="radial-gradient-13" cx="265.12" cy="92.58" fx="265.12" fy="92.58" r="289.71" xlink:href="#radial-gradient"/>
    <radialGradient id="radial-gradient-14" cx="269.6" cy="-24.13" fx="269.6" fy="-24.13" r="202.08" xlink:href="#radial-gradient-2"/>
    <radialGradient id="radial-gradient-15" cx="138.59" cy="37.84" fx="138.59" fy="37.84" r="152.27" gradientUnits="userSpaceOnUse">
      <stop offset="0" stop-color="#4dd5ff"/>
      <stop offset=".02" stop-color="#4ad1fe"/>
      <stop offset=".48" stop-color="#2297ee"/>
      <stop offset=".82" stop-color="#0973e4"/>
      <stop offset="1" stop-color="#0066e1"/>
    </radialGradient>
    <radialGradient id="radial-gradient-16" cx="211.47" cy="78.4" fx="211.47" fy="78.4" r="105.02" gradientUnits="userSpaceOnUse">
      <stop offset="0" stop-color="#f5ffff"/>
      <stop offset="1" stop-color="#0369d1"/>
    </radialGradient>
    <radialGradient id="radial-gradient-17" cx="243.66" cy="117.59" fx="243.66" fy="117.59" r="68.01" xlink:href="#radial-gradient-16"/>
    <radialGradient id="radial-gradient-18" cx="241.62" cy="180.18" fx="241.62" fy="180.18" r="79.24" xlink:href="#radial-gradient-16"/>
    <radialGradient id="radial-gradient-19" cx="206.05" cy="230.88" fx="206.05" fy="230.88" r="84.83" xlink:href="#radial-gradient-16"/>
    <radialGradient id="radial-gradient-20" cx="167.47" cy="282.66" fx="167.47" fy="282.66" r="88.21" xlink:href="#radial-gradient-16"/>
    <radialGradient id="radial-gradient-21" cx="123.95" cy="210.25" fx="123.95" fy="210.25" r="101.06" xlink:href="#radial-gradient-16"/>
    <radialGradient id="radial-gradient-22" cx="200.26" cy="-.04" fx="200.26" fy="-.04" r="127.69" gradientUnits="userSpaceOnUse">
      <stop offset=".33" stop-color="#000"/>
      <stop offset="1" stop-color="#9ff"/>
    </radialGradient>
    <radialGradient id="New_Gradient_Swatch_68" data-name="New Gradient Swatch 68" cx="113.85" cy="59.91" fx="113.85" fy="59.91" r="75.45" gradientUnits="userSpaceOnUse">
      <stop offset=".59" stop-color="#000"/>
      <stop offset="1" stop-color="#9ff"/>
    </radialGradient>
    <radialGradient id="New_Gradient_Swatch_68-2" data-name="New Gradient Swatch 68" cx="192.08" cy="30.05" fx="192.08" fy="30.05" r="136.86" xlink:href="#New_Gradient_Swatch_68"/>
    <radialGradient id="New_Gradient_Swatch_68-3" data-name="New Gradient Swatch 68" cx="144.4" cy="66.74" fx="144.4" fy="66.74" r="129.15" xlink:href="#New_Gradient_Swatch_68"/>
    <radialGradient id="New_Gradient_Swatch_68-4" data-name="New Gradient Swatch 68" cx="91.95" cy="127.4" fx="91.95" fy="127.4" r="88.9" xlink:href="#New_Gradient_Swatch_68"/>
    <radialGradient id="New_Gradient_Swatch_68-5" data-name="New Gradient Swatch 68" cx="149.91" cy="133.38" fx="149.91" fy="133.38" r="87.1" xlink:href="#New_Gradient_Swatch_68"/>
    <radialGradient id="New_Gradient_Swatch_68-6" data-name="New Gradient Swatch 68" cx="62.91" cy="164.86" fx="62.91" fy="164.86" r="69.64" xlink:href="#New_Gradient_Swatch_68"/>
    <radialGradient id="radial-gradient-23" cx="168.97" cy="174.07" fx="168.97" fy="174.07" r="194.5" gradientUnits="userSpaceOnUse">
      <stop offset=".04" stop-color="#000"/>
      <stop offset=".84" stop-color="#000"/>
      <stop offset=".85" stop-color="#0d1515"/>
      <stop offset=".9" stop-color="#3e6767"/>
      <stop offset=".93" stop-color="#65a8a8"/>
      <stop offset=".96" stop-color="#81d7d7"/>
      <stop offset=".99" stop-color="#92f4f4"/>
      <stop offset="1" stop-color="#9ff"/>
    </radialGradient>
    <radialGradient id="radial-gradient-24" cx="-23" cy="-41.47" fx="-23" fy="-41.47" r="292.06" gradientUnits="userSpaceOnUse">
      <stop offset="0" stop-color="#c4ffe2"/>
      <stop offset="1" stop-color="#000"/>
    </radialGradient>
  </defs>
  <g class="cls-31">
    <g id="_Слой_1" data-name="Слой 1">
      <g>
        <path class="cls-2" d="M11.19,174.95l192.34,94.77c-41.07,36.91-103.63,18.91-139.68-5.84-28.42-19.5-50.72-46.03-54.4-76.22-.52-4.23-.11-7.65,1.74-12.71h0Z"/>
        <path class="cls-14" d="M9.57,180.69c2.78,11.08,5.55,18.64,15.19,30.44,11.09,13.57,35.73,34.67,50.21,45,23.28,16.6,47,27.27,75.78,27.71,18.88,.29,30.44-2.38,45.48-8.28,2.5-1.77,4.93-3.71,7.29-5.84L11.19,174.95c-.79,2.15-1.31,4-1.62,5.74h0Z"/>
        <path class="cls-21" d="M6.9,125.76l238.59,116.91c-6.73,16.36-20.78,26.5-44.57,30.64-11.26,1.96-22.95,2.13-34.5,1.63-23.6-1.02-41.28-6.24-62.72-16.25-27-12.61-35.59-21.31-57.77-38.45C19.88,200.1-14.98,164.67,6.9,125.76h0Z"/>
        <path class="cls-10" d="M5.37,128.66c7.27,30.33,30.37,66.36,59.54,87.33,15.54,11.17,34,17.57,51.15,26.05,11.59,5.73,23.01,11.89,35.05,16.58,37.1,14.44,61.42,7.35,92.37-11.66,.73-1.38,1.4-2.81,2.01-4.29L6.9,125.76c-.54,.97-1.05,1.94-1.53,2.9h0Z"/>
        <path class="cls-28" d="M33.89,78.57l243.57,108.88c2.8,26.68-11.7,49.65-39.07,58.96-23.35,7.94-55.6,9.18-78.87,.67-34.07-12.47-70.95-28.02-98.55-50.96C41.25,179.72,3.72,141.76,3.95,115.29c.17-20.41,9.88-31.75,29.94-36.72h0Z"/>
        <path class="cls-25" d="M44.74,128.81c2.05,2.37,3.69,5.08,5.21,7.82,19.52,34.99,32.06,54.68,57.46,70.56,29.61,18.51,42.76,18.97,81.32,12.8,4.84-.77,9.85-1.29,14.68-.47,40.66,6.85,64.39,11.73,74.36-23.85,.08-2.69-.02-5.44-.32-8.22L33.89,78.57c-5.17,1.28-9.65,2.98-13.46,5.16,2.98,21.14,20.95,41.2,24.32,45.09h0Z"/>
        <path class="cls-20" d="M50.61,104.15l229.08,13.57c12.61,20.38,16.85,41.76,3.29,63.53-7.5,12.04-23.39,20.4-37.34,23.52-24.64,5.51-37.55-.27-60.92-2.06-28.73-2.2-31.69,2.76-61.45-10.71-21.18-9.59-41.52-23.4-54.78-42.28-10.48-14.91-15.15-30.57-17.88-45.57h0Z"/>
        <path class="cls-5" d="M55.11,122.51c26.09,29.9,71.96,52.73,107.81,57.57,24.22,3.27,27.54-1.03,48.67-6.04,6.09-1.44,12.22-3.01,18.47-3.32,32.57-1.61,61.21,1.71,59.21-31.94-1.98-7.12-5.3-14.15-9.58-21.07l-229.08-13.57c1.1,6.05,2.52,12.2,4.5,18.36h0Z"/>
        <path class="cls-26" d="M63.29,51.07c-30.86-6.75-46.54,12.11-43.18,28.88,7.04,35.07,51.29,55.77,80.89,66.87,22.04,8.27,44.91,12.27,63.45,14.02,15.51,1.47,29.67,.76,50.8-7.76C161.17,116.78,117.36,87.37,63.29,51.07h0Z"/>
        <path class="cls-17" d="M42.23,50.54c-1.52,29.35,11.59,53.88,38.81,70.87,16.69,10.42,56.39,22.22,75.79,25.34,17.94,2.89,34.31,2.35,49.7,.48-50.14-33.66-92.1-61.83-143.24-96.16-8.08-1.77-15.13-1.78-21.06-.53h0Z"/>
        <path class="cls-12" d="M68.7,32.31l92.47,97.6c-17.86-.94-54.02-9.92-76.49-22.4-12.07-6.7-23.27-14.13-31.08-26.04-3.07-4.69-5.09-9.95-6.96-15.17-3.48-9.73-8.04-23.24,3.11-30.55,4.42-2.9,11.36-4.4,18.95-3.44h0Z"/>
        <path class="cls-8" d="M61.58,32.11c-3.97,11.21-.06,24.77,6.94,37.44,12.23,22.16,22.29,29.98,42.59,43.34,2.79,1.84,6.77,5.57,10.38,9.25,15.2,4.44,30.07,7.27,39.67,7.77L68.7,32.31c-2.46-.31-4.85-.37-7.11-.2h0Z"/>
        <path class="cls-3" d="M100.43,14.62l113.07,12.47c32.9,13.84,88.79,74.82,68.64,107.37-8.66,13.99-23.35,15.37-38.28,16.89-6.67,.68-13.41,.83-20.09,1.41-4.76,.41-9.44,2.13-14.23,1.57-7.35-.85-14.64-2.95-21.53-5.72-20.08-8.07-27.72-14.8-43.99-26.96-7.53-5.62-15.09-11.21-22.82-16.58-11.14-7.74-22.39-12.62-32.47-22.69-4.85-4.84-9.92-10.6-13.98-16.03-6.85-9.16-19.21-27.24-13.16-38.22,4.25-7.72,23.09-15.99,38.85-13.53h0Z"/>
        <path class="cls-9" d="M97.12,14.26c-11.75,8.28-7.03,23.16,.73,35.15,16.99,26.26,47.24,54.9,75.78,68.21,11.34,5.29,21.5,2.06,31.73,2.13,11.7,.08,26.5,3.9,38.84,5.68,18.15,2.62,29.11-2.12,33.31-12.01,3.41-8.03,2.38-16.59-.2-24.75-14.56-26.64-43.56-53.06-63.83-61.58L100.43,14.62c-1.09-.17-2.19-.29-3.31-.36h0Z"/>
        <path class="cls-4" d="M222.25,103.77c7.17-.47,14.48,.81,21.58-.19,15.73-2.22,24.02-8.37,25.94-17.07,7.52-34.14-52.68-74.57-90.64-83.36-29.74-6.89-105.39-5.43-80.56,35.37,14.18,23.31,38.88,39.6,61.68,54.03,24.1,15.25,36.06,12.9,62.01,11.21h0Z"/>
        <path class="cls-22" d="M246.44,66.05c5,10.39,17.13,21.56,8.84,34.78,8.41-3.1,13.11-8.05,14.49-14.32,.67-3.04,.8-6.13,.46-9.24-3.48-31.85-56.52-66.11-91.1-74.12-10.58-2.45-26.97-3.84-42.59-2.79,18.47,.08,40.89,2.41,54.36,12.29,4.03,2.95,7.43,6.74,11.6,9.47,2.81,1.83,5.3,3.32,7.57,4.59,12.13,6.82,17.79,7.72,29.25,24.42,3.12,4.54,4.72,9.96,7.11,14.92h0Z"/>
        <path class="cls-15" d="M269.76,86.51c-1.38,6.27-6.08,11.22-14.49,14.32,12.06-.71,12.12,7.45,11.54,16.12-.08,1.19-.17,2.38-.24,3.57-.24,3.88-1.89,7.55-2.61,11.37-.63,3.37,0,7.07-1.42,10.18-1.45,3.15-2.19,4.76-6.84,7.85,10.53-1.73,20.1-5.21,26.44-15.45,1.32-2.13,2.31-4.37,3-6.72,4.33-14.63-2.87-33.16-14.91-50.48,.34,3.11,.21,6.2-.46,9.24h0Z"/>
        <path class="cls-19" d="M282.14,134.47c-6.34,10.24-15.91,13.73-26.44,15.45,9.05,5.49,6.87,19.73,4,28.15-.14,.41-.29,.82-.44,1.23-1.76,4.65-4.4,9-7.37,12.98-4.31,5.77-16.45,13.16-23.22,14.75,5.14-.19,10.68-.86,16.98-2.27,11.15-2.49,23.53-8.33,31.88-16.72,2.1-2.11,3.95-4.38,5.46-6.81,11.35-18.23,10.23-36.18,2.16-53.5-.69,2.35-1.69,4.59-3,6.72h0Z"/>
        <path class="cls-7" d="M277.52,188.05c-8.35,8.39-20.73,14.23-31.88,16.72-6.31,1.41-11.84,2.08-16.98,2.27,10.61,4.92-.97,13.35-2.12,19.35-1.28,6.68-.58,9.74-5.08,13.55-7.94,6.72-24.5,11.38-40.81,12.05,19.4,2.4,40.89,.16,57.74-5.58,2.3-.78,4.51-1.66,6.63-2.63,22.86-10.48,34.8-31.54,32.5-55.72h0Z"/>
        <path class="cls-30" d="M238.39,246.4c-16.85,5.73-38.34,7.97-57.74,5.58,3.56,2.42,7.05,7.85,2.31,10.88-4.84,3.1-5.89,6.07-11.49,7.34-6.64,1.51-27.28,1.52-43.2-1.74,11.97,3.75,23.99,5.87,38.13,6.49,10.83,.47,21.78,.35,32.39-1.28,.71-.11,1.41-.22,2.11-.35,23.25-4.05,37.2-13.82,44.1-29.54-2.12,.97-4.33,1.85-6.63,2.63h0Z"/>
        <path class="cls-23" d="M198.81,273.66c-10.61,1.63-21.56,1.75-32.39,1.28-14.14-.61-26.16-2.73-38.13-6.49,9.1,5.42,4.75,12.07-5.57,10.91-26.87-3.03-75.18-26.54-96.01-50.48,9.66,13.21,22.6,25.02,37.14,35,34.7,23.81,93.95,41.38,134.96,9.77h0Z"/>
        <path class="cls-13" d="M98.56,38.52c14.18,23.31,38.88,39.6,61.68,54.03,14.37,9.09,24.42,11.93,35.69,12.38,3.57,.14,6.65-2.3,7.32-5.81,.97-5.06,1.22-12.19-.17-16.7-1.47-4.79-4.14-8.99-6.15-18.24-.79-3.63,.47-7.54-.47-11.13-1.31-4.99-3.21-9.97-6.16-14.21-4.12-5.92-10.34-11.61-17.41-16.23-9.06-5.92-19.52-10.09-28.77-10.77-7.96-.59-15.94,.89-23.92,.95-7.71,.06-8.46-1.54-17.29,1.18-.68,.21-1.31,.45-1.88,.71-3.06,1.41-4.75,3.58-6.02,6.22-1.18,2.46-1.44,4.92-.82,7.58,.72,3.04,2.13,6.38,4.36,10.03h0Zm101.34,23.21c-.07,1.68-.02,3.42,.47,5.03,.59,1.96,1.41,3.94,2.72,5.51,.67,.8,1.86,1.3,2.9,1.18,.69-.08,1.18-.97,1.24-1.66,.32-3.34,.45-6.76-.12-10.07-.19-1.14-1.11-2.14-2.07-2.78-2.19-1.48-5.05,.38-5.15,2.78h0Z"/>
        <path class="cls-29" d="M53.59,81.46c2.25,3.44,4.79,6.5,7.55,9.29,6.09,6.14,13.27,10.91,20.87,15.26,.88,.5,1.77,1,2.66,1.5,6.63,3.68,14.45,7.06,22.65,10.02-6.52-3.89-10.33-7.8-14.61-10.77-.06-.04-.12-.08-.17-.12-2.94-2-6.37-3.26-9.18-5.45-.52-.4-1-.79-1.45-1.16-6.8-5.58-6.71-7.9-11.34-15.18-1.58-2.48-4.03-4.41-5.21-7.11-3.72-8.5-4.61-17.39-9.35-26.88-.17-.34-.37-.68-.59-1.01-.5-.74-1.14-1.4-1.9-1.84-1.15-.66-2.63-1.19-3.91-.83-1.12,.32-2.1,1-2.99,1.79-2.55,2.29-3.54,5.58-2.68,8.9,.76,2.95,1.77,5.81,2.7,8.41,1.87,5.22,3.88,10.48,6.96,15.17h0Z"/>
        <path class="cls-1" d="M74.75,66.37c4.06,5.43,9.14,11.19,13.98,16.03,10.08,10.06,21.33,14.95,32.47,22.69,1.69,1.17,3.37,2.35,5.04,3.55,5.99,4.26,11.89,8.64,17.78,13.03,3.73,2.79,7.01,5.29,10.08,7.58,4.2,3.14,8.03,5.89,12.13,8.48,4.74,2.99,9.85,5.75,16.33,8.6-1.06-.83-2.05-1.71-2.99-2.64-8.05-7.93-12.81-19.5-28.35-33.57-.02-.02-.03-.03-.05-.05-3.34-3.02-7.18-6.16-11.65-9.41-3-2.17-6.84-3.72-10.42-5.41-.48-.23-.95-.45-1.42-.69-1.08-.54-2.12-1.1-3.08-1.71-5.63-3.56-9.14-5.96-12.03-8.69-3.51-3.31-6.1-7.11-10.47-14.04-1.53-2.43-2.81-4.64-3.92-6.68-6.54-12.16-6.6-18.66-12.31-31.44-.84-1.89-2.72-3.32-4.62-4.14-3.93-1.7-10.19,.94-14.4,4.29-.16,.13-.32,.26-.48,.39-4.3,3.62-5.66,9.41-3.43,14.56,.82,1.9,1.77,3.8,2.79,5.64,2.91,5.27,6.37,10.12,9.01,13.66h0Zm103.19,64.68c-.48-.41-1.5-.45-1.6,1.01-.27,3.95,3.99,9,6.87,11.19,1.95,1.49,4.41,2.25,6.81,2.78,3.29,.73,9.65-1.29,6.87-4.38-1.42-1.58-8.02-2.99-10.42-3.97-5.43-2.21-6.37-4.77-8.53-6.63h0Z"/>
        <path class="cls-16" d="M24.17,82.68c-.05,.14-.09,.29-.13,.43-1.1,3.72-.74,7.31,1.07,10.74,14.14,26.77,50.43,43.42,75.88,52.97,17.86,6.7,36.26,10.6,52.46,12.77-12.18-3.62-15.24-6.95-31.24-12.72-4.54-1.64-9.18-3.07-13.5-5.21-4.99-2.47-5.23-7.64-15.32-9.86-13.27-2.91-14.88-8.98-28.02-17.38-3.42-2.19-9.16-5.47-11.96-8.41-8.63-9.05-10.47-23.49-15.87-32.8-.65-1.12-2.15-1.71-3.43-1.78-4.74-.24-8.76,7.51-9.95,11.25h0Z"/>
        <path class="cls-6" d="M11.68,128.1c.15,6.43,1.8,13.15,6.03,21.57,12.67,18.5,31.26,36.46,43.27,46.44,.18,.15,.36,.3,.54,.45-3.81-5.17-2.9-8.39-7.32-13.28-1.83-2.03-3.61-6.03-4.74-8.53-3.44-7.65-3.26-14.93-5.68-22.62-1.22-3.88-3.01-7.14-4.71-10.61-.66-1.35-1.31-2.73-1.92-4.19-2.91-7.04-4.64-14.52-7.58-21.55-3.29-7.87-14.77-9.26-16.7,.47-.8,4.06-1.28,7.9-1.19,11.85h0Zm47.39,35.8c-1.35-1.09-3.65-1.64-4.57-1.29-2.78,1.07-3,8.46-.45,13.12,1.84,3.37,5.55,7.49,9.55,8.25,.99,.19,1.65-.76,1.6-1.77-.07-1.28-2.5-5.9-3.23-9.96-.66-3.67-1.39-7.15-2.89-8.35h0Z"/>
        <path class="cls-11" d="M68.49,149.72c2.55,3.63,5.36,7.06,8.38,10.32,12.73,13.71,29.29,24.21,46.4,31.96,.88,.4,1.74,.78,2.57,1.15-3.88-4.29-5.92-9.25-9.41-13.72-1.3-1.67-2.81-3.27-4.69-4.75-3.35-2.63-7.73-3.72-11.13-6.28-1.47-1.11-1.88-3.21-3.2-4.5-10.15-9.97-25.54-14.07-35.37-24.75,1.86,3.55,4,7.07,6.45,10.56h0Z"/>
        <path class="cls-18" d="M.8,159.77c1.38,7.68,4.47,15.03,8.61,21.94,.24,.39,.47,.78,.72,1.18,7.54,12.14,18.26,22.86,28.57,31.54-5.57-7.1-6.1-9.42-10.85-17.74-3.98-6.97-11.41-24.11-13.56-29.31-1.73-4.18-13.1-19.43-13.51-7.84,0,.08,0,.15,.02,.23H.8Z"/>
        <path class="cls-24" d="M285.12,127.76c4.35-14.64-2.86-33.18-14.92-50.51-3.5-31.85-56.51-66.1-91.08-74.1C157.06-1.96,109.77-2.46,96.94,14.27c-14.94-.89-31.42,6.73-35.36,13.88-.72,1.3-1.16,2.72-1.4,4.19-4.11,.49-7.76,1.64-10.44,3.4-5.69,3.73-7.28,9.08-7.01,14.71-.03,0-.07,.02-.1,.02-.13,.03-.28,.03-.4,.06,0,.01,0,.03,0,.04-16.69,3.53-24.6,17-22.12,29.37,.24,1.18,.62,2.31,.94,3.45-11.38,6.23-16.98,16.46-17.1,31.89-.03,3.8,.79,7.85,2.15,12.03-10.26,19.55-6.37,38.17,3.33,54.37-.26,1.99-.23,3.89,.02,5.98,3.68,30.19,25.98,56.72,54.4,76.22,34.72,23.83,93.99,41.37,135.01,9.71,.69-.11,1.38-.16,2.07-.28,23.24-4.05,37.13-13.86,44.04-29.56,22.91-10.49,34.87-31.56,32.54-55.79,2.08-2.1,3.99-4.31,5.48-6.71,11.35-18.22,10.2-36.17,2.14-53.49Z"/>
        <path class="cls-27" d="M56.84,44.96c-3.91,2.64-7.9,4.21-12.2,6.15-3.8,1.71-8.65,11.5-9.55,12.77-6.47,9.13-13.72,17.89-18.54,27.99-3.86,8.09-5.24,17.16-7.19,25.91-.77,3.46-.73,7.05-.95,10.59-.1,1.57,.22,3.17,0,4.73-1.11,7.86,.76,14.01,7.47,24.68,2.81,4.47,4.97,8.61,8.23,12.77,4,5.11,7.59,10.68,12.48,14.94,3.94,3.43,8.78,5.8,13.62,7.76,4.14,1.67,8.63,2.41,13.05,3.03,7.9,1.09,15.87,2.52,23.83,2.08,4.68-.26,9.02-2.57,13.43-4.16,6.26-2.26,12.32-5.03,18.54-7.38,11.85-4.47,20-7.82,28.75-17.59,4.97-5.55,8.75-12.11,13.81-17.59,2.56-2.77,6.48-4.1,8.89-7,3.04-3.65,5.37-7.91,7.19-12.29,2-4.83,2.46-10.18,4.16-15.13,1.34-3.9,4.17-7.3,4.92-11.35,1.61-8.71,2.32-17.63,2.08-26.48-.15-5.53-1.54-11-3.22-16.27-1.69-5.33-3.77-10.63-6.81-15.32-2.65-4.08-6.61-7.14-10.03-10.59-6.59-6.67-22.82-15.97-31.97-17.97-6.11-1.33-12.49-1.88-18.73-1.32-6.59,.59-12.87,3.13-19.29,4.73-6.25,1.55-12.7,2.46-18.73,4.73-4.47,1.68-8.68,4.12-12.48,7-4.02,3.04-6.61,7.78-10.78,10.59h0ZM17.25,167.73c-.37-.57-1.32-1.2-1.87-.8-4.66,3.32,.9,16.29,2.9,20.32,1.95,3.92,4.72,7.76,8.46,10.05,2.37,1.45,5.65-.55,8.32,.21,2.39,.68,3,2.95,5.35,3.77,7.58,2.67,12.95-1.91,6.92-4.56-3.26-1.44-6.33-2.59-9.48-4.82-10.52-7.46-14.26-14.29-20.6-24.16h0Zm150.49-14.99c-.56-.38-1.42-.23-2.02,.08-1.26,.65-2.37,1.61-3.31,2.66-1.26,1.42-2.4,2.98-3.23,4.68-.72,1.49-1.39,3.11-1.37,4.76,0,.74,.71,1.72,1.45,1.7,2.56-.09,5.28-.62,7.43-2.02,3.15-2.06,3.63-10.13,1.05-11.87h0Z"/>
      </g>
    </g>
  </g>
</svg>