<?xml version="1.0" encoding="UTF-8"?>
<svg xmlns="http://www.w3.org/2000/svg" xmlns:xlink="http://www.w3.org/1999/xlink" viewBox="0 0 279.77 289">
  <defs>
    <style>
      .cls-1 {
        fill: url(#radial-gradient);
      }

      .cls-1, .cls-2, .cls-3, .cls-4, .cls-5, .cls-6, .cls-7, .cls-8, .cls-9, .cls-10, .cls-11, .cls-12, .cls-13, .cls-14, .cls-15, .cls-16, .cls-17, .cls-18, .cls-19, .cls-20, .cls-21, .cls-22, .cls-23, .cls-24, .cls-25, .cls-26 {
        fill-rule: evenodd;
      }

      .cls-2 {
        fill: url(#New_Gradient_Swatch_67-6);
      }

      .cls-2, .cls-3, .cls-4, .cls-5, .cls-9, .cls-13, .cls-14, .cls-16, .cls-19, .cls-22, .cls-23, .cls-24, .cls-25 {
        mix-blend-mode: multiply;
      }

      .cls-3 {
        fill: url(#New_Gradient_Swatch_67-9);
      }

      .cls-4 {
        fill: url(#New_Gradient_Swatch_67);
        opacity: .65;
      }

      .cls-5 {
        fill: url(#New_Gradient_Swatch_67-11);
      }

      .cls-6 {
        fill: url(#radial-gradient-5);
        opacity: .7;
      }

      .cls-6, .cls-7, .cls-8, .cls-10, .cls-11, .cls-12, .cls-15, .cls-17, .cls-18, .cls-20, .cls-26 {
        mix-blend-mode: screen;
      }

      .cls-27 {
        isolation: isolate;
      }

      .cls-7 {
        fill: url(#radial-gradient-3);
      }

      .cls-8 {
        fill: url(#New_Gradient_Swatch_66-4);
      }

      .cls-9 {
        fill: url(#New_Gradient_Swatch_67-4);
      }

      .cls-10 {
        fill: url(#New_Gradient_Swatch_66);
      }

      .cls-11 {
        fill: url(#New_Gradient_Swatch_66-7);
        opacity: .6;
      }

      .cls-12 {
        fill: url(#New_Gradient_Swatch_66-9);
      }

      .cls-13 {
        fill: url(#New_Gradient_Swatch_67-5);
        opacity: .75;
      }

      .cls-14 {
        fill: url(#New_Gradient_Swatch_67-3);
      }

      .cls-15 {
        fill: url(#New_Gradient_Swatch_66-6);
      }

      .cls-16 {
        fill: url(#radial-gradient-2);
      }

      .cls-17 {
        fill: url(#New_Gradient_Swatch_66-3);
      }

      .cls-18 {
        fill: url(#New_Gradient_Swatch_66-5);
      }

      .cls-19 {
        fill: url(#New_Gradient_Swatch_67-10);
      }

      .cls-20 {
        fill: url(#New_Gradient_Swatch_66-8);
      }

      .cls-21 {
        fill: url(#radial-gradient-4);
      }

      .cls-22 {
        fill: url(#New_Gradient_Swatch_67-7);
      }

      .cls-23 {
        fill: url(#radial-gradient-6);
      }

      .cls-24 {
        fill: url(#New_Gradient_Swatch_67-2);
      }

      .cls-25 {
        fill: url(#New_Gradient_Swatch_67-8);
      }

      .cls-26 {
        fill: url(#New_Gradient_Swatch_66-2);
      }
    </style>
    <radialGradient id="radial-gradient" cx="116.75" cy="89.39" fx="116.75" fy="89.39" r="231.08" gradientUnits="userSpaceOnUse">
      <stop offset="0" stop-color="#71f5ff"/>
      <stop offset=".17" stop-color="#69e8ff"/>
      <stop offset=".47" stop-color="#56c8ff"/>
      <stop offset=".5" stop-color="#54c5ff"/>
      <stop offset=".92" stop-color="#1483ff"/>
    </radialGradient>
    <radialGradient id="radial-gradient-2" cx="120.55" cy="95.72" fx="120.55" fy="95.72" r="210.31" gradientUnits="userSpaceOnUse">
      <stop offset=".33" stop-color="#fff"/>
      <stop offset=".4" stop-color="#f3fafa"/>
      <stop offset=".52" stop-color="#d6edec"/>
      <stop offset=".68" stop-color="#a6d9d6"/>
      <stop offset=".87" stop-color="#64bdb9"/>
      <stop offset="1" stop-color="#35aaa4"/>
    </radialGradient>
    <radialGradient id="radial-gradient-3" cx="45.75" cy="-26.62" fx="45.75" fy="-26.62" r="288.91" gradientUnits="userSpaceOnUse">
      <stop offset="0" stop-color="#c4ffe2"/>
      <stop offset="1" stop-color="#000"/>
    </radialGradient>
    <radialGradient id="radial-gradient-4" cx="122.04" cy="78.07" fx="122.04" fy="78.07" r="191.39" gradientUnits="userSpaceOnUse">
      <stop offset="0" stop-color="#7feb00"/>
      <stop offset="1" stop-color="#196603"/>
    </radialGradient>
    <radialGradient id="radial-gradient-5" cx="85.17" cy="48.05" fx="85.17" fy="48.05" r="202.59" gradientUnits="userSpaceOnUse">
      <stop offset="0" stop-color="#83c11a"/>
      <stop offset="1" stop-color="#000"/>
    </radialGradient>
    <radialGradient id="New_Gradient_Swatch_66" data-name="New Gradient Swatch 66" cx="111.34" cy="93.4" fx="111.34" fy="93.4" r="75.33" gradientUnits="userSpaceOnUse">
      <stop offset="0" stop-color="#95c11f"/>
      <stop offset="1" stop-color="#000"/>
    </radialGradient>
    <radialGradient id="New_Gradient_Swatch_66-2" data-name="New Gradient Swatch 66" cx="131.24" cy="145.21" fx="131.24" fy="145.21" r="36.44" xlink:href="#New_Gradient_Swatch_66"/>
    <radialGradient id="New_Gradient_Swatch_66-3" data-name="New Gradient Swatch 66" cx="45.47" cy="65.77" fx="45.47" fy="65.77" r="44.7" xlink:href="#New_Gradient_Swatch_66"/>
    <radialGradient id="New_Gradient_Swatch_66-4" data-name="New Gradient Swatch 66" cx="44.39" cy="141.93" fx="44.39" fy="141.93" r="12.22" xlink:href="#New_Gradient_Swatch_66"/>
    <radialGradient id="radial-gradient-6" cx="104.71" cy="131.85" fx="104.71" fy="131.85" r="190.12" gradientUnits="userSpaceOnUse">
      <stop offset=".45" stop-color="#edfffa"/>
      <stop offset=".5" stop-color="#e6faee"/>
      <stop offset=".59" stop-color="#d6efd1"/>
      <stop offset=".7" stop-color="#bcdda1"/>
      <stop offset=".84" stop-color="#98c45e"/>
      <stop offset=".99" stop-color="#6aa50a"/>
      <stop offset="1" stop-color="#68a305"/>
    </radialGradient>
    <radialGradient id="New_Gradient_Swatch_66-5" data-name="New Gradient Swatch 66" cx="173.56" cy="86.56" fx="173.56" fy="86.56" r="82.75" xlink:href="#New_Gradient_Swatch_66"/>
    <radialGradient id="New_Gradient_Swatch_66-6" data-name="New Gradient Swatch 66" cx="149.32" cy="28.5" fx="149.32" fy="28.5" r="32.21" xlink:href="#New_Gradient_Swatch_66"/>
    <radialGradient id="New_Gradient_Swatch_66-7" data-name="New Gradient Swatch 66" cx="55.96" cy="190.62" fx="55.96" fy="190.62" r="44.87" xlink:href="#New_Gradient_Swatch_66"/>
    <radialGradient id="New_Gradient_Swatch_66-8" data-name="New Gradient Swatch 66" cx="200.23" cy="154.28" fx="200.23" fy="154.28" r="56.4" xlink:href="#New_Gradient_Swatch_66"/>
    <radialGradient id="New_Gradient_Swatch_67" data-name="New Gradient Swatch 67" cx="95.62" cy="98.77" fx="95.62" fy="98.77" r="82.38" gradientUnits="userSpaceOnUse">
      <stop offset="0" stop-color="#093"/>
      <stop offset="1" stop-color="#fff"/>
    </radialGradient>
    <radialGradient id="New_Gradient_Swatch_67-2" data-name="New Gradient Swatch 67" cx="176.84" cy="35.66" fx="176.84" fy="35.66" r="39.29" xlink:href="#New_Gradient_Swatch_67"/>
    <radialGradient id="New_Gradient_Swatch_67-3" data-name="New Gradient Swatch 67" cx="229.37" cy="51.39" fx="229.37" fy="51.39" r="37.19" xlink:href="#New_Gradient_Swatch_67"/>
    <radialGradient id="New_Gradient_Swatch_67-4" data-name="New Gradient Swatch 67" cx="266.82" cy="108.95" fx="266.82" fy="108.95" r="58.11" xlink:href="#New_Gradient_Swatch_67"/>
    <radialGradient id="New_Gradient_Swatch_67-5" data-name="New Gradient Swatch 67" cx="144" cy="249.69" fx="144" fy="249.69" r="230.58" xlink:href="#New_Gradient_Swatch_67"/>
    <radialGradient id="New_Gradient_Swatch_67-6" data-name="New Gradient Swatch 67" cx="113.64" cy="178" fx="113.64" fy="178" r="66.78" xlink:href="#New_Gradient_Swatch_67"/>
    <radialGradient id="New_Gradient_Swatch_67-7" data-name="New Gradient Swatch 67" cx="90.55" cy="251.66" fx="90.55" fy="251.66" r="18.97" xlink:href="#New_Gradient_Swatch_67"/>
    <radialGradient id="New_Gradient_Swatch_67-8" data-name="New Gradient Swatch 67" cx="68.76" cy="265.52" fx="68.76" fy="265.52" r="36.87" xlink:href="#New_Gradient_Swatch_67"/>
    <radialGradient id="New_Gradient_Swatch_67-9" data-name="New Gradient Swatch 67" cx="157.16" cy="257.57" fx="157.16" fy="257.57" r="28.92" xlink:href="#New_Gradient_Swatch_67"/>
    <radialGradient id="New_Gradient_Swatch_67-10" data-name="New Gradient Swatch 67" cx="237.96" cy="210.4" fx="237.96" fy="210.4" r="26.3" xlink:href="#New_Gradient_Swatch_67"/>
    <radialGradient id="New_Gradient_Swatch_67-11" data-name="New Gradient Swatch 67" cx="195.16" cy="196.68" fx="195.16" fy="196.68" r="173.59" xlink:href="#New_Gradient_Swatch_67"/>
    <radialGradient id="New_Gradient_Swatch_66-9" data-name="New Gradient Swatch 66" cx="175.44" cy="151.01" fx="175.44" fy="151.01" r="31.09" xlink:href="#New_Gradient_Swatch_66"/>
  </defs>
  <g class="cls-27">
    <g id="_Слой_1" data-name="Слой 1">
      <g>
        <path class="cls-1" d="M142.06,7.56c76.06,0,137.71,61.66,137.71,137.71s-61.66,137.71-137.71,137.71S4.35,221.33,4.35,145.28,66,7.56,142.06,7.56h0Z"/>
        <path class="cls-16" d="M191.68,225.61c-14.57,6.14-14.43,15.42-23.39,21.33-10.14,6.7-22.38,3.37-37.05-1.87-2.54-.91-5.36-1.19-8.05-.94-7.58,.72-14.31,5.65-22.27,1.31-4.36-2.38-7.24-6.98-11.6-9.36-6.96-3.79-9.97,1.78-12.35,1.87-1.76,.07-3.34-1.29-4.68-2.43-8.1-6.9-15.71-10.21-25.07-15.53-2.25-1.28-5.11-1.7-6.92-3.56-4-4.08-6.83-9.17-10.1-13.85-2.27-3.24-4.6-6.47-6.55-9.92-2.11-3.74-3.15-8.08-5.61-11.6-2.53-3.61-6.99-5.71-9.17-9.54-1.35-2.36-2.36-4.88-3.25-7.45,9.17,67.16,66.76,118.9,136.44,118.9,76.06,0,137.71-61.66,137.71-137.71S218.12,7.56,142.06,7.56c-16.19,0-31.72,2.79-46.15,7.92,2.48,.24,4.96,.6,7.45,.56,6.94-.12,13.86-.73,20.77-1.31,17.13-1.43,45.42-5.14,55.38,14.03,3.83,7.37,12.56,10.34,30.87,16.09,5.01,1.57,16.25,14.06,18.71,18.34,1.59,2.77-.09,6.51,.94,9.54,2.69,7.98-1.18,11.94,1.5,18.15,.84,1.95,2.63,3.35,4.12,4.86,2.57,2.61,5.96,4.48,8.05,7.48,2.8,4.03,5.29,8.49,6.36,13.28,4.96,22.14-1.43,40.31-12.91,58.94-3.81,6.19-9.62,11.23-12.35,17.96-10.35,25.49-16.96,25.37-33.12,32.18h0Zm-73.74,23.75c-1.94,1.4-1.85,6.01,1.89,5.83,3.32-.16,6.46-1.74,9.77-1.97,2.04-.14,4.04,.97,6.09,.86,.76-.04,1.65-.56,1.89-1.29,.23-.7-.21-1.58-.77-2.06-1.88-1.6-6.85-3.19-8.92-3.56-3.1-.55-7.22,.23-9.94,2.19h0Zm52.66-20.72c-3.17-2.76-.82-11.9,1.43-14.67,3.2-3.92,13.62-6.5,18.5-6.2,8.29,.52,5.38,9.48,1.28,13.14-2.29,2.04-5.56,2.63-8.17,4.25-2.21,1.37-3.73,4.02-6.24,4.69-2.22,.59-5.06,.31-6.8-1.21h0Zm-5.53-15.81c-.56-4.35,1.83-9.09,5.26-11.68,1.12-.84,2.51-1.43,3.9-1.56,3.02-.28,4.09,5.11,2.49,6.98-1.14,1.33-3.01,1.83-4.41,2.88-4.08,3.06-3.06,4.41-3.84,5.36-1.64,1.97-3.19-.41-3.39-1.98h0Z"/>
        <path class="cls-7" d="M65.68,45.17c-3.87,2.61-7.81,4.16-12.07,6.08-3.75,1.69-8.56,11.37-9.45,12.63-6.4,9.03-13.57,17.7-18.34,27.69-3.82,8-5.18,16.98-7.11,25.63-.76,3.42-.72,6.98-.94,10.48-.1,1.56,.22,3.13,0,4.68-1.09,7.77,.75,13.86,7.39,24.42,2.78,4.42,4.92,8.51,8.14,12.63,3.96,5.06,7.5,10.57,12.35,14.78,3.9,3.39,8.68,5.73,13.47,7.67,4.1,1.66,8.53,2.39,12.91,2.99,7.81,1.08,15.7,2.5,23.58,2.06,4.63-.26,8.92-2.54,13.28-4.12,6.19-2.23,12.18-4.97,18.34-7.3,11.72-4.42,19.78-7.74,28.44-17.4,4.92-5.49,8.66-11.98,13.66-17.4,2.53-2.74,6.41-4.06,8.79-6.92,3.01-3.61,5.31-7.82,7.11-12.16,1.98-4.78,2.44-10.07,4.12-14.97,1.32-3.86,4.12-7.22,4.86-11.23,1.59-8.61,2.29-17.44,2.06-26.19-.14-5.47-1.53-10.88-3.18-16.09-1.67-5.27-3.72-10.52-6.74-15.16-2.62-4.03-6.53-7.06-9.92-10.48-6.52-6.59-22.58-15.8-31.62-17.78-6.05-1.32-12.36-1.86-18.52-1.31-6.52,.58-12.73,3.1-19.09,4.68-6.18,1.54-12.56,2.44-18.52,4.68-4.42,1.66-8.59,4.08-12.35,6.92-3.98,3.01-6.53,7.69-10.67,10.48h0ZM26.51,166.61c-.36-.57-1.3-1.18-1.85-.79-4.61,3.28,.89,16.11,2.87,20.1,1.93,3.88,4.67,7.68,8.36,9.94,2.34,1.43,5.59-.54,8.23,.2,2.37,.67,2.97,2.92,5.29,3.73,7.49,2.64,12.81-1.88,6.85-4.51-3.23-1.42-6.26-2.56-9.38-4.77-10.4-7.38-14.1-14.13-20.37-23.9h0Zm148.86-14.83c-.55-.37-1.4-.22-2,.08-1.25,.64-2.34,1.59-3.28,2.64-1.25,1.4-2.37,2.95-3.19,4.63-.72,1.47-1.38,3.08-1.36,4.71,0,.74,.7,1.7,1.44,1.68,2.54-.09,5.22-.61,7.35-2,3.12-2.04,3.59-10.02,1.04-11.74h0Z"/>
        <path class="cls-21" d="M58.24,27.35c-2.24,1.55-4.46,3.12-6.55,4.86-.69,.57-1.26,1.3-1.73,2.06-.32,.52-.49,1.13-.61,1.73-.28,1.39-.29,2.83-.61,4.21-.23,1-.77,1.91-1.03,2.9-.77,2.97-1.74,5.93-2.06,8.98-.15,1.47,.18,2.99,.65,4.4,.24,.7,.82,1.27,1.4,1.73,1.06,.82,2.42,1.21,3.46,2.06,.43,.35,.7,.91,.84,1.45,.18,.65,.32,1.38,.09,2.01-.86,2.42-1.94,4.78-3.27,6.97-1.18,1.93-2.62,3.72-4.21,5.33-1.27,1.28-3.06,1.97-4.3,3.27-1.57,1.65-2.82,3.59-4.02,5.52-1.42,2.29-2.87,4.6-3.84,7.11-1.39,3.63-2.37,7.42-3.18,11.23-.41,1.9-.53,3.86-.47,5.8,.1,3.19,.12,6.45,.94,9.54,.83,3.16,2.02,6.33,3.93,8.98,1.86,2.58,4.91,4.07,7.11,6.36,2.09,2.18,4.36,4.32,5.71,7.02,4.33,8.67-3.22,14.59-12.16,6.55-3.67-3.3-8.19-11.88-10.2-13.38-2.09-1.55-5.13-1.36-7.3-2.81-1.84-1.22-3.42-2.98-4.4-4.96-8.01-16.25,5.27-39.29,11.24-51.41-3.73,1.58-6.67,3.54-10.21,9.31-1.21,1.97-1.46,4.53-2.99,6.27C-1.78,104.34,2.25,100.96,.37,114.59c-.89,6.47-.42,27.82,3.98,31.53,.11-2.24,.02-4.51,.33-6.73,1.02-7.38,4.92-.93,7.58,1.4,1.24,1.09,2.83,1.77,3.93,2.99,1.03,1.16,1.56,2.68,2.34,4.02,5.34,9.24,7.22,8.45,15.34,14.97,2.95,2.37,6.04,4.6,8.7,7.3,1.4,1.42,1.98,3.52,3.37,4.96,2.7,2.8,6.25,4.73,8.79,7.67,2.47,2.85,4.28,6.23,6.08,9.54,2.57,4.74,5.03,9.57,7.02,14.59,.63,1.58,.93,3.36,.75,5.05-.48,4.49-1.74,8.87-2.71,13.28-.31,1.39-.36,2.92-1.12,4.12-.59,.92-1.63,1.71-2.71,1.87-7.18,1.07-22.75-5.49-27.79-10.38-2.95-2.86-4.89-6.62-6.92-10.2-1.51-2.66-2.59-5.55-3.65-8.42-1.44-3.91-2.03-8.13-3.84-11.88-2.02-4.19-5.05-7.81-7.53-11.74-.69-1.09-1.27-2.24-1.97-3.32-1.01-1.58-2.62-2.51-3.83-.23-1.35,2.53-1.8,7.2-1.54,10.06,.96,10.56,3.24,18.71,8.65,27.08,2.72,4.2,9.81,7.07,13,10.1,1.88,1.78,2.38,3.9,2.99,6.27,1.46,5.61,6.04,18.39,10.01,22.17,5.05,4.81,15.44,10.07,24.69,15.8,14.12,8.77,30.35,15.6,40.19,11.23,.26-.11-13.82-4.86-15.34-5.52-12.59-5.47-17.09-7.68-27.97-15.76-10.14-7.53,2.77-10.53,11.26-7.57,4.26,1.48,8.58,8.62,11.38,12.25,5.3,6.86,10.95,7.23,17.03,5.47,1.25-.36,2.32-1.19,3.51-1.73,1.8-.81,6.6-2.2,7.63-2.9,.86-.58,1.45-1.56,1.82-2.53,.57-1.48,1.09-3.1,.94-4.68-.33-3.47-4.13-1.04-4.35-6.5-.09-2.32,.43-7.66,2.43-9.07,3.8-2.68,10.73-1.92,15.16-2.43,4.61-.53,8.69-3.08,8.79-8.23,.1-4.6-1.14-9.16-1.03-13.75,.32-13.07,8.07-18.92,19.74-22.36,6.24-1.84,13.98-1.26,20.3-2.99,8.85-2.42,15.26-11.94,18.62-19.93,1.96-4.65,1.24-11.54,.19-16.37-1.34-6.14-3.79-12.03-4.77-18.24-1.55-9.79,2.64-19.46,13.1-21.24,5.64-.95,12.4-1.06,16.84,3.18,1.72,1.64,2.52,4.13,2.99,6.46,1.33,6.54,2.26,24.42,2.43,31.34,.13,5.24,.07,10.54-.75,15.72-2.04,12.94-12.76,18.84-18.43,29.47-1.57,2.95-2.32,6.33-2.81,9.64-.31,2.1-.26,4.37,.47,6.36,1.28,3.49,3.66,6.47,5.43,9.73,4.44,8.18,7.33,15.35,1.03,24.32-2.96,4.21-13.62,9.33-18.9,7.2-1.66-.67-2.81-2.24-4.02-3.56-1.89-2.06-3.11-4.74-5.24-6.55-6.33-5.36-23.24-6.96-31.34-6.46-5.24,.33-10.19,2.32-8.61,8.61,1.7,6.75,5.07,8.36,7.3,13.19,.6,1.31,1,2.96,.47,4.3-.73,1.83-2.24,3.39-3.93,4.4-3.73,2.23-8.83,2.74-13.66,5.71-1.08,.66-3.95,2.53-3.74,4.02,.12,.91,.62,1.83,1.31,2.43,3.37,2.93,8.04,4.58,13.45,5.26,9.54,1.2,22.33,.73,33.45-2.26,18.05-4.84,25.54-11.98,40.01-20.68,8.64-5.2,16.29-5.27,24.14-13,5.43-5.35,8.67-12.51,13.47-18.43,7.34-9.06,22-29.51,20.49-40.42-.27-1.96-1.32-3.75-1.59-5.71-1.06-7.52,1.34-10.45,2.9-16.28,.7-2.62,1.18-5.33,1.22-8.05,.09-6.37-3.33-11.01-10.2-8.33-8.9,3.48-14.96,13.57-19.46,21.33-1.24,2.14-2.18,4.53-3.84,6.36-1.43,1.58-4.22-.18-4.77-1.87-1.02-3.15-1.29-6.52-1.5-9.82-.25-3.97-.75-20.07,.09-23.58,.57-2.36,2.32-4.27,3.37-6.46,1.32-2.74,2.8-5.43,3.74-8.33,4.81-14.82-.9-18.11-4.96-32.09-1.52-5.25-2.09-11,.75-15.9,2.57-4.44,12.83-6.13,16.56-4.58,2.53,1.05,4.71,2.93,6.55,4.96,4.84,5.31,8.4,15.32,10.85,22.09,4.22-6.18-1-22.73-7.11-29.86-1.77-2.07-3.96-3.85-6.36-5.15-6.57-3.55-14.32,.53-20.3,2.99-4.87,2.01-11,1.92-15.25-1.68-3.38-2.86-5.67-6.8-8.51-10.2-2.64-3.15-5.67-6.02-7.95-9.45-2.25-3.38-2.52-7.49-1.4-11.32,.59-2.01,1.89-3.74,2.81-5.61,2.32-4.72,4.84-6.11,9.17-3.84,11.61,6.11,19.31,14.48,28.18,23.75-.18-3.72-2-5.07-3.39-8.22-.73-1.65-.96-3.55-1.97-5.05-7.48-11.11-19.57-18.11-30.87-24.89-9.11-5.46-26.48-15.69-43.22-18.43-7.97-1.3-24.51,.9-32.93,1.4-7.2,.43-14.4,1.02-21.52,2.15-6.28,1-13.25,.79-19.18,3.09-10.29,3.98-19.39,10.55-29.19,15.62-2.55,1.32-4.88,3.04-7.25,4.68h0Zm30.7,217.31c-1.13-.72-2.69-.97-3.98-.58-.86,.26-1.6,1.33-1.53,2.23,.5,6.28,5.53,14.18,9.62,15.42,1.16,.35,5.55-.07,6.03-1.56,.26-.82,.13-1.8-.24-2.58-2.07-4.47-5.8-10.32-9.9-12.92h0Zm-1.69-107.01c-13.6,9.42-13.88,21.92-6.92,35.92,5.07,10.21,18.02,16.73,28.07,20.96,6.12,2.58,19.66-.2,22.08-7.11,1.55-4.42,1.21-9.32,2.43-13.85,1.22-4.55,4.49-8.58,4.87-13.28,.51-6.42-3.53-21.79-8.61-26.01-3.1-2.57-7.58-3.27-11.6-3.37-7.32-.18-24.1,2.44-30.31,6.74h0ZM171.54,11.91c-12.52-3.17-27.31-4.44-39.78-3.27-20.56,1.93-33.15,6.42-51.45,15.16-7.88,3.76-17.26,9.06-21.42,17.31-1.03,2.04-.6,6.38,1.4,7.77,2.19,1.51,13.66,2.38,18.06,4.4,9,4.13,9.01,13.67,7.11,21.89-.69,2.96-1.51,6.04-3.27,8.51-9.45,13.21-18.55,12.69-30.26,18.64-4.39,2.23-7.69,5.59-4.26,10.83,3.51,5.37,9.9,11.14,16.19,12.91,8.19,2.31,11.02-1.45,17.78-3.27,21.04-5.68,37.7-4.75,59.41-14.97,3.83-1.8,6.98-4.84,10.76-6.74,7.38-3.7,14.66,3.18,7.11,11.41-4.6,5.01-6.82,13.93-8.06,20.46-1.06,5.54-1.83,11.8-2.12,17.75-.79,16.04,3.73,34.23,24.59,27,7.32-2.54,12.38-11.21,10.85-18.9-1.54-7.76-5.84-14.72-8.23-22.27-2.06-6.49-6.1-17.83-2.62-24.7,1.12-2.2,2.89-4.22,5.05-5.43,3.5-1.95,7.52-2.83,11.41-3.74,5.67-1.33,11.71-1.08,17.21-2.99,5.82-2.02,12.73-7.98,10.29-14.78-5.25-14.64-16.71-28.03-29.94-36.11-4.83-2.95-10.93-3.11-16.09-5.43-8.15-3.65-9.14-5.94-14.88-10.95-3.51-3.07-7.47-5.59-10.95-8.7-2.02-1.81-4.25-5.29-1.03-7.2,7.46-4.42,19.41-3.23,27.69-2.39,7.89,.8,3.17-1.27-.54-2.2h0Zm60.27,185.95c-3.36,2.91-6.29,3.23-7.48,8.14-.93,3.82,2.58,6.3,5.52,8.09,4.45,2.72,7.16-5.75,8-8.51,.81-2.67,1.28-5.45,1.45-8.23,.05-.91-.26-1.88-.8-2.62-2.1-2.87-5.64,2.23-6.69,3.13h0Zm-73.32,77.84c-4.62,2.44-7.08,2.88-10.2,4.12-1.01,.4-.52,1.19-.09,1.31,6.21,1.71,22.07-1.2,27.69-3.37,6.58-2.53,.47-6.97-6.86-6.25-6.14,.61-5.91,1.74-10.55,4.19h0Z"/>
        <path class="cls-6" d="M63.84,126.05c-6.29-1.78-12.67-7.54-16.19-12.91-3.43-5.24-.13-8.61,4.26-10.83,11.71-5.94,20.82-5.43,30.26-18.64,1.77-2.47,2.59-5.55,3.27-8.51,1.9-8.22,1.89-17.76-7.11-21.89-4.4-2.02-15.87-2.89-18.06-4.4-.17-.12-.33-.25-.47-.41-2.01,.96-4.07,1.83-6.2,2.79-1.96,.89-4.21,3.95-6.04,6.86,.05,.04,.1,.08,.14,.11,1.06,.82,2.42,1.21,3.46,2.06,.43,.35,.7,.91,.84,1.45,.18,.65,.32,1.38,.09,2.01-.86,2.42-1.94,4.78-3.27,6.97-1.18,1.93-2.62,3.72-4.21,5.33-1.27,1.28-3.06,1.97-4.3,3.27-1.57,1.65-2.82,3.59-4.02,5.52-1.42,2.29-2.87,4.6-3.84,7.11-1.39,3.63-2.37,7.42-3.18,11.23-.41,1.9-.53,3.86-.47,5.8,.1,3.19,.12,6.45,.94,9.54,.83,3.16,2.02,6.33,3.93,8.98,1.86,2.58,4.91,4.07,7.11,6.36,2.09,2.18,4.36,4.32,5.71,7.02,4.33,8.67-3.22,14.59-12.16,6.55-3.67-3.3-8.19-11.88-10.2-13.38-1.79-1.33-4.26-1.38-6.3-2.27-.01,.2-.03,.39-.06,.58-1.06,7.53,.64,13.48,6.78,23.43,2.29,2.03,4.87,3.41,9.31,6.97,2.95,2.37,6.04,4.6,8.7,7.3,1.4,1.42,1.98,3.52,3.37,4.96,2.7,2.8,6.25,4.73,8.79,7.67,2.47,2.85,4.28,6.23,6.08,9.54,.06,.1,.11,.2,.16,.3,3.57,1.19,7.34,1.8,11.07,2.32,7.81,1.08,15.7,2.5,23.58,2.06,3.78-.21,7.33-1.77,10.88-3.19-9.73-4.24-21.42-10.57-26.17-20.15-6.95-14.01-6.68-26.51,6.92-35.92,6.21-4.3,22.99-6.91,30.31-6.74,4.03,.1,8.5,.8,11.6,3.37,5.08,4.22,9.12,19.59,8.61,26.01-.38,4.7-3.64,8.73-4.87,13.28-.9,3.36-.95,6.93-1.55,10.35,8.09-3.17,14.45-6.22,20.82-12.22-3.04-5.62-3.83-13.55-3.46-21.02,.29-5.95,1.07-12.21,2.12-17.75,1.25-6.53,3.46-15.45,8.06-20.46,7.55-8.24,.27-15.11-7.11-11.41-3.78,1.9-6.93,4.93-10.76,6.74-21.71,10.22-38.37,9.29-59.41,14.97-6.75,1.82-9.59,5.59-17.78,3.27h0ZM156.36,32.4c5.73,5.01,6.73,7.29,14.88,10.95,4.91,2.2,10.66,2.45,15.37,5.01-.08-.13-.16-.25-.24-.38-2.62-4.03-6.53-7.06-9.92-10.48-6.52-6.59-22.58-15.8-31.62-17.78-.68-.15-1.36-.29-2.05-.42,.13,1.6,1.42,3.3,2.64,4.39,3.47,3.11,7.44,5.63,10.95,8.7h0Z"/>
        <path class="cls-10" d="M57.76,124.66c-2-1.21-3.6-2.65-5.42-4.48-1.43-1.43-2.36-2.73-2.76-2.59-.37,.13-.29,1.59,.78,3.67,3.94,7.61,13.98,13.15,21.77,10.07,3.07-1.21,5.74-3.52,8.79-4.77,3.26-1.34,6.78-2.07,10.29-2.43,6.83-.7,13.35-.85,20.21-1.22,13.1-.71,20.07-.54,30.5-9.17,2.53-2.09,4.68-4.61,7.02-6.92,2.52-2.49,7.22-4.41,7.39-4.58,.93-.95-.03-2.01-1.59-1.73-3.83,.69-5.06,2.26-8.05,4.4-5.57,3.99-9.12,5.74-15.75,8.06-10.84,3.8-21.91,5.61-33.18,7.47-4.07,.67-8.14,1.53-12.16,2.43-2.13,.47-4.23,1.1-6.27,1.87-8.18,3.09-12.43,5.45-21.58-.08h0Z"/>
        <path class="cls-26" d="M132.34,181.24c-.1-2.71,.64-6.69,1.64-9.19,.76-1.9,1.46-3.42,2.08-4.67,2.12-4.25,2.16-5.38,2.26-7.58,.2-4.6-1.28-9.21-3.4-16.94-.28-1.02-.42-2.14-.19-3.18,.07-.31,.81-.38,.94-.09,.41,.9,.76,1.82,1.09,2.75,1.74,4.95,5.21,10.86,6.3,14.37,.64,2.07,.72,3.72,.24,5.26-1.19,3.83-4.61,5.27-6.6,8.21-2.44,3.6-2.59,7.14-3.46,11.04-.06,.26-.24,.62-.51,.63-.24,0-.37-.37-.37-.61h0Z"/>
        <path class="cls-17" d="M31.61,110.96c-1.11-.21-1.13-2.05-1.22-3.18-.17-2.31-.07-4.67,.47-6.92,.91-3.76,2.18-7.45,3.84-10.95,1.08-2.27,2.77-4.19,4.3-6.17,1.03-1.33,2.15-2.58,3.37-3.74,1.54-1.47,3.52-2.47,4.86-4.12,1.56-1.9,2.58-4.19,3.74-6.36,1.05-1.95,2.22-3.88,2.9-5.99,.37-1.13,.61-2.45,.19-3.55-.34-.89-1.39-1.36-2.25-1.78-1.17-.57-2.69-.36-3.74-1.12-.69-.5-1.05-1.49-1.03-2.34,.01-.49,.65-1.07,1.12-.94,1.47,.41,2.54,1.72,3.93,2.34,1.77,.79,3.86,.87,5.52,1.87,1.03,.62,1.97,1.64,2.24,2.81,.6,2.52,1.22,5.35,.28,7.76-1.1,2.82-4.32,4.3-5.99,6.83-.69,1.05-.16,2.66-.94,3.65-.91,1.16-2.5,1.55-3.74,2.34-2.9,1.83-6.21,3.16-8.7,5.52-1.89,1.79-2.97,4.3-4.12,6.64-1.27,2.58-2.36,5.27-3.09,8.05-.56,2.16-.29,4.46-.75,6.64-.2,.97-.24,2.9-1.22,2.71h0Z"/>
        <path class="cls-8" d="M42.83,128.92c-.86-.73-2.47-.23-3.37,.47-.5,.39-.04,1.39,.37,1.87,2.02,2.39,5.01,3.93,6.74,6.55,1.61,2.44,2.92,5.31,2.99,8.23,.12,4.46-2.67,6.51-6.74,6.46-3.13-.04-5-1.73-7.76-2.9-.49-.21-1.4-.5-1.59,0-.21,.57,.53,1.15,1.03,1.5,2.96,2.08,7.18,4.18,10.85,4.21,5.02,.05,8.81-4.46,9.82-9.07,.32-1.47,.12-3.11-.47-4.49-3.01-7.03-6.39-4.52-8.98-7.02-1.55-1.5-1.25-4.4-2.9-5.8h0Z"/>
        <path class="cls-23" d="M257.09,80.3c2.53,1.05,4.71,2.93,6.55,4.96,4.84,5.31,8.4,15.32,10.85,22.09,4.22-6.18-1-22.73-7.11-29.86-1.77-2.07-3.96-3.85-6.36-5.15-.91-.49-1.84-.84-2.79-1.06-5.89-1.39-12.36,1.93-17.51,4.06-3.04,1.25-6.58,1.69-9.84,.96,.77,5.75-1.59,9.38,.65,14.59,.84,1.95,2.63,3.35,4.12,4.86,1.11,1.13,2.38,2.12,3.63,3.13-1.11-4.71-1.25-9.68,1.25-14,2.57-4.44,12.83-6.13,16.56-4.58h0Zm-49.49-37.61c.59-2.01,1.89-3.74,2.81-5.61,2.32-4.72,4.84-6.11,9.17-3.84,11.61,6.11,19.31,14.48,28.18,23.75-.18-3.72-2-5.07-3.39-8.22-.73-1.65-.96-3.55-1.97-5.05-7.48-11.11-19.57-18.11-30.87-24.89-9.11-5.46-26.48-15.69-43.22-18.43-7.97-1.3-24.51,.9-32.93,1.4-7.2,.43-14.4,1.02-21.52,2.15-6.28,1-13.25,.79-19.18,3.09-7.39,2.86-14.16,7.05-21.02,11.06,5.87-1.94,11.41-2.59,17.92-2.81,1.45-.05,2.89,.05,4.33,.19,.98,.09,1.96,.21,2.94,.31,10.09-3.69,19.9-5.94,32.91-7.16,12.47-1.17,27.27,.1,39.78,3.27,3.71,.94,8.42,3.01,.54,2.2-5.69-.58-13.11-1.33-19.62-.3,11.25,1.03,21.75,4.75,27.05,14.96,3.61,6.94,11.56,9.98,27.78,15.12,.09-.4,.19-.8,.3-1.2h0Zm1.5,182.81c4.44,8.18,7.33,15.35,1.03,24.32-2.96,4.21-13.62,9.33-18.9,7.2-1.66-.67-2.81-2.24-4.02-3.56-1.89-2.06-3.11-4.74-5.24-6.55-2.08-1.76-5.31-3.12-8.99-4.13-1.31,1.49-2.79,2.89-4.69,4.14-7.58,5.01-16.33,4.41-26.39,1.6,.03,.17,.07,.35,.12,.53,1.7,6.75,5.07,8.36,7.3,13.19,.6,1.31,1,2.96,.47,4.3-.73,1.83-2.24,3.39-3.93,4.4-3.73,2.23-8.83,2.74-13.66,5.71-1.08,.66-3.95,2.53-3.74,4.02,.08,.59,.31,1.18,.66,1.69,.19,.28,.41,.53,.65,.74,3.37,2.93,8.04,4.58,13.45,5.26,9.54,1.2,22.33,.73,33.45-2.26,18.05-4.84,25.54-11.98,40.01-20.68,8.64-5.2,16.29-5.27,24.14-13,5.43-5.35,8.67-12.51,13.47-18.43,7.34-9.06,22-29.51,20.49-40.42-.27-1.96-1.32-3.75-1.59-5.71-.01-.09-.03-.19-.04-.28-.96-7.32,1.4-10.24,2.94-16,.7-2.62,1.18-5.33,1.22-8.05,.09-6.37-3.33-11.01-10.2-8.33-8.9,3.48-14.96,13.57-19.46,21.33-1.24,2.14-2.18,4.53-3.84,6.36-1.43,1.58-4.22-.18-4.77-1.87-.69-2.14-1.04-4.38-1.25-6.63-.21,.34-.42,.69-.63,1.04-3.81,6.19-9.62,11.23-12.35,17.96-6.77,16.67-11.93,22.39-19.22,26.25,1.14,1.95,2.44,3.83,3.52,5.82h0Zm28.75-19.93c-.84,2.76-3.55,11.23-8,8.51-2.94-1.8-6.45-4.28-5.52-8.09,1.19-4.91,4.12-5.23,7.48-8.14,1.05-.91,4.59-6,6.69-3.13,.54,.74,.85,1.71,.8,2.62-.17,2.78-.64,5.57-1.45,8.23h0Zm-79.36,70.12c4.64-2.45,4.41-3.58,10.55-4.19,7.32-.73,13.43,3.71,6.86,6.25-5.63,2.17-21.48,5.08-27.69,3.37-.42-.12-.91-.91,.09-1.31,3.12-1.24,5.58-1.68,10.2-4.12h0Zm-96.46-44.53c-7.18,1.07-22.75-5.49-27.79-10.38-2.95-2.86-4.89-6.62-6.92-10.2-1.51-2.66-2.59-5.55-3.65-8.42-1.44-3.91-2.03-8.13-3.84-11.88-2.02-4.19-5.05-7.81-7.53-11.74-.69-1.09-1.27-2.24-1.97-3.32-.79-1.24-1.95-2.08-3-1.29-.29,.22-.57,.56-.83,1.05-1.35,2.53-1.8,7.2-1.54,10.06,.96,10.56,3.24,18.71,8.65,27.08,2.72,4.2,9.81,7.07,13,10.1,1.88,1.78,2.38,3.9,2.99,6.27,1.46,5.61,6.04,18.39,10.01,22.17,5.05,4.81,15.44,10.07,24.69,15.8,14.05,8.73,30.2,15.53,40.05,11.3,.05-.02,.09-.04,.14-.06,.26-.11-13.82-4.86-15.34-5.52-12.59-5.47-17.09-7.68-27.97-15.76-10.14-7.53,2.77-10.53,11.26-7.57,4.26,1.48,8.58,8.62,11.38,12.25,5.3,6.86,10.95,7.23,17.03,5.47,1.25-.36,2.32-1.19,3.51-1.73,1.8-.81,6.6-2.2,7.63-2.9,.86-.58,1.45-1.56,1.82-2.53,.57-1.48,1.09-3.1,.94-4.68-.33-3.47-4.13-1.04-4.35-6.5-.01-.35-.01-.76,0-1.22-3.04,.44-6.15,.24-9.47-1.57-4.36-2.38-7.24-6.98-11.6-9.36-6.96-3.79-9.97,1.78-12.35,1.87-1.76,.07-3.34-1.29-4.68-2.43-2.65-2.26-5.25-4.13-7.87-5.82-.61,.73-1.49,1.31-2.4,1.45h0Zm22.93,12.92c1.28-.38,2.85-.13,3.98,.58,4.1,2.6,7.83,8.45,9.9,12.92,.36,.78,.5,1.76,.24,2.58-.47,1.49-4.86,1.92-6.03,1.56-4.08-1.24-9.11-9.14-9.62-15.42-.07-.9,.67-1.97,1.53-2.23h0Z"/>
        <path class="cls-18" d="M175.87,129.06c-.69,.51-1.15-1.34-1.4-2.15-1.88-5.98-2.72-13.24,2.53-17.78,7.4-6.4,15.68-5.38,23.95-6.55,6.96-.98,16.03-3.51,18.06-11.41,1.53-5.98-3.78-14.15-5.61-17.78-.29-.58-.29-1.51,.33-1.71,.61-.19,1.37,.52,1.73,1.05,8.12,12.19,14.53,31.07-6.36,34.8-9.09,1.62-16.12-1.58-26.35,3.14-3.59,1.66-6.47,4.26-7.05,8.46-.53,3.8,1.51,8.94,.19,9.92h0Z"/>
        <path class="cls-15" d="M145.63,18.74c-.55,.36-.83,1.25-.61,1.87,1.16,3.3,5.6,4.62,8.37,6.22,2.02,1.17,4.29,2.04,5.99,3.65,2.2,2.08,3.05,5.98,6.97,9.21,2.28,1.88,6.6,3.33,9.45,4.07,.88,.23,4.67,.71,2.57-1.31-2.08-2-4.67-3.39-6.92-5.19-1.3-1.04-2.76-1.98-3.74-3.32-2.09-2.86-2.51-7.31-6.36-9.12-2.29-1.08-4.05-1.31-6.11-1.85-3.27-.86-5.09-1.88-7.72-3.84-.62-.46-1.3-.79-1.89-.39h0Z"/>
        <path class="cls-11" d="M57.8,182.03c-.6,.09-.34,1.28-.08,1.82,1.82,3.73,4.55,8.55,6.59,12.16,2.28,4.03,3.73,7.13,5.71,11.32,.43,.91,.53,1.99,.42,2.99-.75,6.58-1.93,8.98-3.52,15.06-.52,1.99,.19,4.69-2.69,5.99-1.25,.56-2.4,.57-3.69,1.03-.43,.15-1.07,.61-.9,1.03,.2,.51,.99,.57,1.53,.56,2.36-.04,7.03,.17,7.76-2.85,.4-1.66-.7-3.46-.2-5.1,1.15-3.75,3.37-7.11,5.04-10.67,1.22-2.61,3.69-6.49,2.58-9.45-.67-1.8-2.33-3.03-3.58-4.49-5.42-6.35-8.14-10.57-12.91-17.26-.5-.71-1.21-2.28-2.07-2.15h0Z"/>
        <path class="cls-20" d="M204.59,210.61c-.73-.31-.6-1.56-.47-2.34,1-5.8,3.29-9.28,4.68-11.27,2-2.87,4.42-5.42,6.74-8.05,2.52-2.86,5.53-5.32,7.77-8.42,1.06-1.46,1.5-3.3,1.96-5.05,.57-2.17,.91-4.41,1.12-6.64,.29-3.14,.46-6.3,.37-9.45-.16-5.56-.81-11.1-1.12-16.65-.22-3.89-.61-7.8-.47-11.69,.02-.59,.36-1.38,.94-1.5,.43-.08,.42,.78,.47,1.22,.55,5.1,.57,10.26,1.31,15.34,.39,2.71,1.96,5.22,2.06,7.95,.06,1.62-1.61,2.97-1.59,4.58,.01,1.26,1.44,2.14,1.68,3.37,.46,2.33,.45,4.74,.37,7.11-.08,2.51-.17,5.07-.84,7.48-.56,2.01-1.56,3.93-2.81,5.61-.92,1.25-2.39,1.98-3.56,2.99-2.73,2.38-5.56,4.66-8.14,7.2-6.56,6.49-7.79,7.7-9.73,16.37-.14,.64-.14,2.08-.75,1.82h0Z"/>
        <path class="cls-4" d="M60.28,48.87c-2-1.38-2.43-5.72-1.4-7.77,3.25-6.44,9.69-11.09,16.11-14.6-7.51,3.39-14.83,7.3-19.47,14.6-1.4,2.21-4.39,8.25-2.25,10.67,2.65,2.99,10.25,.94,13.94,.94,8.01,0,14.36,2.25,14.22,11.13-.22,13.88-5.96,23.77-17.96,30.97-4.26,2.55-15.83,5.81-17.68,7.39-4.83,4.12-.61,9.51,3.31,12.97-.52-.67-1-1.35-1.44-2.01-3.43-5.24-.13-8.61,4.26-10.83,11.71-5.94,20.82-5.43,30.26-18.64,1.77-2.47,2.59-5.55,3.27-8.51,1.9-8.22,1.89-17.76-7.11-21.89-4.4-2.02-15.87-2.89-18.06-4.4h0Z"/>
        <path class="cls-24" d="M150.69,14.14c13.13-.7,21.69,1.03,32.26,3.55,3.75,.9,5.92,1.65,5.99,1.12,.07-.51-1.8-2.23-5.08-3.81-4.63-2.22-10.3-3.76-14.72-4.64-11-2.18-18-2.58-28.13-2.15,10.14-.03,21,1.28,30.53,3.7,3.71,.94,8.42,3.01,.54,2.2-6.21-.63-14.49-1.46-21.39,.03h0Z"/>
        <path class="cls-14" d="M205.11,34.03c-1.52,2.4-3.61,2.73-4.12,6.83-1.05,8.58,10.42,17.46,15.81,23.01,.91,.94,1.8,1.9,2.69,2.87-.83-1.11-1.66-2.22-2.55-3.28-2.64-3.15-5.67-6.02-7.95-9.45-2.25-3.38-2.52-7.49-1.4-11.32,.59-2.01,1.89-3.74,2.81-5.61,2.32-4.72,4.84-6.11,9.17-3.84,5.54,2.92,10.19,6.35,14.51,10.15-6.22-6.3-17.48-16.42-25.41-14.14-3.13,.9-2.5,3.1-3.56,4.77h0Z"/>
        <path class="cls-9" d="M248.99,78.47c-5.62,.86-15.2,1.99-17.5,8.33-.72,2-.93,4.34-.28,6.36,1.56,4.83,4.59,9.06,6.74,13.66,7.36,15.81,6.99,23.79,2.98,34.52,.02-.04,.04-.09,.06-.13,1.32-2.74,2.8-5.43,3.74-8.33,4.81-14.82-.9-18.11-4.96-32.09-1.52-5.25-2.09-11,.75-15.9,2.57-4.44,12.83-6.13,16.56-4.58,2.53,1.05,4.71,2.93,6.55,4.96,.42,.46,.82,.95,1.22,1.47-2.87-4.56-6.73-9.04-12.22-9.11-1.25-.02-2.41,.65-3.65,.84h0Z"/>
        <path class="cls-13" d="M189.82,134.84c-1.55-9.79,2.64-19.46,13.1-21.24,1.59-.27,3.28-.47,4.97-.53-7.26-.96-15.11,.13-20.09,6.04-1.94,2.3-3.35,5.24-3.74,8.23-1.13,8.68,5.3,20.03,7.86,28.25,3.09,9.92,.32,17.65-6.27,25.63-5.28,6.39-13.54,4.97-20.77,4.49-9.06-.6-19.3,1.91-25.73,9.08-1.74,1.94-3.24,4.19-4.12,6.64-2.39,6.72-.5,13.53,.46,20.48,.67,4.82,1.95,9.09-3.55,11.14-5.68,2.11-9.78-.77-15.16-.84-1.66-.02-3.47,.38-4.77,1.4-1.55,1.23-2.67,3.07-3.27,4.96-.69,2.14-.69,4.5-.47,6.74,.21,2.08,.83,4.15,1.73,6.03,.36,.75,1.43,.92,1.92,1.59,.28,.38,.37,.93,.28,1.4-.2,1.09-.54,2.19-1.12,3.13-.44,.71-1.1,1.36-1.87,1.68-1.51,.64-3.26,.49-4.77,1.12-1.47,.62-2.53,1.8-3.49,2.89-3.59,4.07-8.05,4.27-12.42,2.36,3.91,2.45,8.01,2.27,12.31,1.03,1.25-.36,2.32-1.19,3.51-1.73,1.8-.81,6.6-2.2,7.63-2.9,.86-.58,1.45-1.56,1.82-2.53,.57-1.48,1.09-3.1,.94-4.68-.33-3.47-4.13-1.04-4.35-6.5-.09-2.32,.43-7.66,2.43-9.07,3.8-2.68,10.73-1.92,15.16-2.43,4.61-.53,8.69-3.08,8.79-8.23,.1-4.6-1.14-9.16-1.03-13.75,.32-13.07,8.07-18.92,19.74-22.36,6.24-1.84,13.98-1.26,20.3-2.99,8.85-2.42,15.26-11.94,18.62-19.93,1.96-4.65,1.24-11.54,.19-16.37-1.34-6.14-3.79-12.03-4.77-18.24h0Z"/>
        <path class="cls-2" d="M87.25,137.65c6.21-4.3,22.99-6.91,30.31-6.74,1.45,.03,2.97,.15,4.45,.4-6.43-2.12-8.75-2.66-17.75-1.81-4.93,.46-17.85,2.7-22.45,4.49-2.37,.93-4.78,2.1-6.55,3.93-5.83,6.04-6.87,17.2-4.12,24.89,4.82,13.44,12.34,19.12,22.95,24.53-5.78-3.62-10.97-8.13-13.77-13.76-6.95-14.01-6.68-26.51,6.92-35.92h0Z"/>
        <path class="cls-22" d="M93.91,249.43c-2-3.94-4.35-8.82-9.06-9.63-.7-.12-1.53,.08-2.06,.56-.64,.58-1.1,1.47-1.12,2.34-.04,1.47,.42,2.93,.94,4.3,.5,1.35,1.19,2.62,1.87,3.9-.55-1.55-.92-3.12-1.04-4.6-.07-.9,.67-1.97,1.53-2.23,1.28-.38,2.85-.13,3.98,.58,1.76,1.11,3.45,2.83,4.97,4.77h0Z"/>
        <path class="cls-25" d="M83.19,260.25c-2.41-4.33-7.23-13.46-9.24-14.93-3.44-2.5-8.69-1.65-12.63-1.4-1.5,.09-3.12-.14-4.49,.47-1.29,.57-2.46,1.64-3.09,2.9-2.56,5.11,3.18,9.72,6.83,11.88,10.03,5.95,17.24,9.17,26.75,12.21-11.22-4.91-15.8-7.28-26.14-14.96-10.14-7.53,2.77-10.53,11.26-7.57,3.95,1.37,7.95,7.61,10.75,11.41h0Z"/>
        <path class="cls-3" d="M156.6,273.72c-2.34,.8-13.38,.69-12.39,5.19,.47,2.13,5.09,3.12,8.67,2.72-1.84-.02-3.45-.17-4.68-.51-.42-.12-.91-.91,.09-1.31,3.12-1.24,5.58-1.68,10.2-4.12,4.64-2.45,4.41-3.58,10.55-4.19,2.17-.22,4.22,.02,5.88,.53-4.19-2.15-9.81-4.05-13.87-1.59-1.72,1.04-1.81,2.38-4.44,3.27h0Z"/>
        <path class="cls-19" d="M220.78,202.43c-.99,5.71,4.05,8.92,8.37,11.22-2.77-1.76-5.68-4.14-4.82-7.66,1.19-4.91,4.12-5.23,7.48-8.14,.87-.75,3.47-4.41,5.52-3.96-1.75-1.05-4.31-1.57-4.91,.12-.22,.62-.14,1.46-.49,2.01-.37,.58-.95,.91-1.57,1.22-2.31,1.16-5.82,1.29-8.05,2.71-.82,.52-1.38,1.52-1.54,2.48h0Z"/>
        <path class="cls-5" d="M202.98,268.81c-1.84,2.02-3.67,4.05-5.77,5.79-13.76,11.47-35.04,14.45-50.45,14.14,9.02,.69,20.1,0,29.89-2.62,18.05-4.84,25.54-11.98,40.01-20.68,8.64-5.2,16.29-5.27,24.14-13,5.43-5.35,8.67-12.51,13.47-18.43,7.34-9.06,22-29.51,20.49-40.42-.27-1.96-1.32-3.75-1.59-5.71-.01-.09-.03-.19-.04-.28-.96-7.32,1.4-10.24,2.94-16,.7-2.62,1.18-5.33,1.22-8.05,.02-1.6-.18-3.09-.6-4.38,.27,5.5-.24,8.94-3.24,14.66-3.72,7.1-6.91,10.63-6.83,16.75,.02,1.19,.3,2.6,1.22,3.37,.74,.62,1.75,.71,2.74,.86,.58,.09,1.15,.2,1.66,.45,.48,.24,.87,.78,.94,1.31,.81,6.41-3.94,15.88-8.23,20.3-3.35,3.46-7.7,5.84-11.27,9.06-.5,.45-.99,.92-1.45,1.41-1.14,1.21-2.01,2.64-2.78,4.13-.6,1.17-1.14,2.37-1.71,3.54-5.61,11.48-2.13,14.1-14.59,21.52-5,2.97-9.2,2.41-13.73,2.68-1.37,.08-2.77,.24-4.23,.6-2.43,.59-4.71,1.88-6.64,3.46-2.02,1.66-3.79,3.59-5.55,5.53h0Z"/>
        <path class="cls-12" d="M177.52,177.26c-.39-.05-.14-.9,.14-1.17,2.84-2.71,6.45-5.33,7.72-12.07,.88-4.65-2.3-11.03-3.56-15.62-.13-.48-.47-1.68,0-1.5,.85,.33,1.32,1.32,1.68,2.15,.92,2.1,4.89,12.57,5.05,14.59,.11,1.32-.43,2.66-1.03,3.84-.82,1.61-1.99,3.03-3.18,4.4-1.41,1.61-2.9,3.17-4.58,4.49-.63,.5-1.45,.99-2.25,.89h0Z"/>
      </g>
    </g>
  </g>
</svg>