<?xml version="1.0" encoding="UTF-8"?>
<svg xmlns="http://www.w3.org/2000/svg" xmlns:xlink="http://www.w3.org/1999/xlink" viewBox="0 0 286 291.94">
  <defs>
    <style>
      .cls-1 {
        fill: url(#radial-gradient);
      }

      .cls-1, .cls-2, .cls-3, .cls-4, .cls-5, .cls-6, .cls-7, .cls-8, .cls-9, .cls-10, .cls-11, .cls-12 {
        fill-rule: evenodd;
      }

      .cls-2 {
        fill: url(#radial-gradient-2);
      }

      .cls-3 {
        fill: url(#radial-gradient-8);
      }

      .cls-3, .cls-13 {
        mix-blend-mode: multiply;
      }

      .cls-14 {
        isolation: isolate;
      }

      .cls-4 {
        fill: url(#radial-gradient-7);
      }

      .cls-4, .cls-5, .cls-6, .cls-9 {
        mix-blend-mode: screen;
      }

      .cls-5 {
        fill: url(#linear-gradient);
      }

      .cls-6 {
        fill: url(#radial-gradient-10);
      }

      .cls-7 {
        fill: url(#radial-gradient-3);
      }

      .cls-8 {
        fill: url(#radial-gradient-4);
      }

      .cls-9 {
        fill: url(#radial-gradient-6);
        opacity: .5;
      }

      .cls-10 {
        fill: url(#New_Gradient_Swatch_65);
      }

      .cls-11 {
        fill: url(#radial-gradient-9);
      }

      .cls-12 {
        fill: url(#radial-gradient-5);
      }
    </style>
    <radialGradient id="radial-gradient" cx="115.77" cy="77.66" fx="115.77" fy="77.66" r="235.44" gradientUnits="userSpaceOnUse">
      <stop offset="0" stop-color="#71f5ff"/>
      <stop offset=".15" stop-color="#66e8ff"/>
      <stop offset=".43" stop-color="#4cc8ff"/>
      <stop offset=".5" stop-color="#44bfff"/>
      <stop offset=".92" stop-color="#ce2feb"/>
    </radialGradient>
    <radialGradient id="radial-gradient-2" cx="120.74" cy="111.44" fx="120.74" fy="111.44" r="212.73" gradientUnits="userSpaceOnUse">
      <stop offset=".33" stop-color="#f5f5ff"/>
      <stop offset=".46" stop-color="#efe9fa"/>
      <stop offset=".68" stop-color="#e1cced"/>
      <stop offset=".98" stop-color="#c99cd8"/>
      <stop offset="1" stop-color="#c899d7"/>
    </radialGradient>
    <radialGradient id="radial-gradient-3" cx="75.73" cy="107.33" fx="75.73" fy="107.33" r="184.1" gradientUnits="userSpaceOnUse">
      <stop offset="0" stop-color="#e87923"/>
      <stop offset="1" stop-color="#ad4200"/>
    </radialGradient>
    <radialGradient id="radial-gradient-4" cx="113.87" cy="77.43" fx="113.87" fy="77.43" r="231.25" gradientUnits="userSpaceOnUse">
      <stop offset="0" stop-color="#ed9600"/>
      <stop offset="1" stop-color="#e94e1b"/>
    </radialGradient>
    <radialGradient id="radial-gradient-5" cx="153.71" cy="244.25" fx="153.71" fy="244.25" r="217.27" gradientUnits="userSpaceOnUse">
      <stop offset="0" stop-color="#f5812a"/>
      <stop offset="1" stop-color="#b84706"/>
    </radialGradient>
    <radialGradient id="New_Gradient_Swatch_65" data-name="New Gradient Swatch 65" cx="71.12" cy="77.47" fx="71.12" fy="77.47" r="177.83" gradientUnits="userSpaceOnUse">
      <stop offset="0" stop-color="#f5812a"/>
      <stop offset="1" stop-color="#bd5519"/>
    </radialGradient>
    <radialGradient id="radial-gradient-6" cx="106.16" cy="65.05" fx="106.16" fy="65.05" r="176.86" gradientUnits="userSpaceOnUse">
      <stop offset="0" stop-color="#a48a7b"/>
      <stop offset="1" stop-color="#000a00"/>
    </radialGradient>
    <radialGradient id="radial-gradient-7" cx="100.46" cy="61.72" fx="100.46" fy="61.72" r="182.72" gradientUnits="userSpaceOnUse">
      <stop offset="0" stop-color="#c2f5f4"/>
      <stop offset="1" stop-color="#000012"/>
    </radialGradient>
    <radialGradient id="radial-gradient-8" cx="139.7" cy="90.34" fx="139.7" fy="90.34" r="228.11" gradientUnits="userSpaceOnUse">
      <stop offset=".33" stop-color="#e6f5f5"/>
      <stop offset=".46" stop-color="#e4f1f0"/>
      <stop offset=".61" stop-color="#e0e6e2"/>
      <stop offset=".76" stop-color="#dad3ca"/>
      <stop offset=".92" stop-color="#d1baaa"/>
      <stop offset="1" stop-color="#ccac99"/>
    </radialGradient>
    <radialGradient id="radial-gradient-9" cx="194.87" cy="187.61" fx="194.87" fy="187.61" r="119.68" gradientUnits="userSpaceOnUse">
      <stop offset="0" stop-color="#d45c00"/>
      <stop offset="1" stop-color="#8c3500"/>
    </radialGradient>
    <radialGradient id="radial-gradient-10" cx="175.7" cy="132.6" fx="175.7" fy="132.6" r="179.68" gradientUnits="userSpaceOnUse">
      <stop offset=".68" stop-color="#000"/>
      <stop offset=".72" stop-color="#030200"/>
      <stop offset=".76" stop-color="#0f0800"/>
      <stop offset=".8" stop-color="#231200"/>
      <stop offset=".84" stop-color="#3f2100"/>
      <stop offset=".88" stop-color="#633300"/>
      <stop offset=".92" stop-color="#8f4a00"/>
      <stop offset=".96" stop-color="#c36500"/>
      <stop offset="1" stop-color="#f98100"/>
    </radialGradient>
    <linearGradient id="linear-gradient" x1="41.83" y1="35.14" x2="176.11" y2="182.22" gradientUnits="userSpaceOnUse">
      <stop offset="0" stop-color="#f98100"/>
      <stop offset=".08" stop-color="#f57e00"/>
      <stop offset=".17" stop-color="#e97800"/>
      <stop offset=".25" stop-color="#d46e00"/>
      <stop offset=".33" stop-color="#b85f00"/>
      <stop offset=".41" stop-color="#944c00"/>
      <stop offset=".5" stop-color="#683500"/>
      <stop offset=".58" stop-color="#341b00"/>
      <stop offset=".65" stop-color="#000"/>
    </linearGradient>
  </defs>
  <g class="cls-14">
    <g id="_Слой_1" data-name="Слой 1">
      <g>
        <path class="cls-1" d="M142.59,11.77c74.79,0,135.42,60.63,135.42,135.42s-60.63,135.42-135.42,135.42S7.17,221.99,7.17,147.2,67.8,11.77,142.59,11.77h0Z"/>
        <g class="cls-13">
          <path class="cls-2" d="M245.22,138.28c.06,1.76,2.8,3.79,5.05,.24,1.7-2.68,2.33-7.85,.56-11.05-.87-1.57-6.15-6.74-7.99-4.24-.94,1.28-.42,3.64,.15,5.1,1.81,4.63,2.05,4.82,2.23,9.94ZM103.33,249.59c1.45,.47,12.46,.79,12.73-.08,.3-.93,.18-1.32-.27-1.95-1.15-1.64-8.39-4.29-10.31-3.58-1.59,.59-5.3,4.61-2.16,5.62Zm40.34,3.04c5.69-2.27,12.53-8.28,4.36-12.2-3.93-1.89-34.72-5.69-29.9,5.13,1.88,4.22,16.53,10.68,25.54,7.08Zm-1.08-240.85c-12.57,0-24.73,1.71-36.28,4.91,4.35,.2,8.71-.05,13.07-.09,3.45-.03,6.9-.48,10.34-.22,4.76,.35,9.4,1.77,14.16,2.02,5.24,.28,10.51-.88,15.74-.45,3.99,.33,7.97,1.23,11.69,2.7,4.15,1.64,7.62,4.69,11.69,6.52,6.15,2.76,12.82,4.26,18.88,7.19,3,1.45,5.39,3.9,8.09,5.85,4.27,3.07,9.49,5.14,12.81,9.22,2.28,2.79,1.42,7.18,3.15,10.34,3.8,6.97,9.14,13,13.26,19.78,2.63,4.32,5.64,8.6,6.97,13.49,2.02,7.44,1.26,15.41,2.92,22.93,1.05,4.77,4.56,8.87,5.17,13.71,.77,6.03-.02,12.23-1.12,18.21-1.9,10.28-5.32,20.21-7.87,30.35-.97,3.88-1.01,8.06-2.7,11.69-1.39,2.99-4.17,5.12-6.29,7.64-4.24,5.04-9.3,9.49-12.81,15.06-2.71,4.3-2.7,10-5.62,14.16-2.86,4.09-6.81,7.59-11.24,9.89-3.94,2.04-8.87,1.18-13.04,2.7-5.2,1.89-9.89,4.96-14.84,7.42-7.26,3.61-14.15,8.11-21.81,10.79-4.27,1.5-8.97,1.88-13.49,1.57-7.74-.53-15.21-3.21-22.93-4.05-7.46-.81-14.99-.62-22.48-.9-4.72-.17-9.71,1.12-14.16-.45-6.97-2.45-13.91-5.99-19.11-11.24-3.48-3.51-2.71-9.72-5.62-13.71-3.32-4.54-8.52-7.35-12.59-11.24-6.05-5.78-13.05-10.84-17.76-17.76-3.29-4.84-3.3-11.26-5.62-16.64-2.19-5.08-6.47-9.26-7.87-14.61-2.34-8.98-3.61-18.39-3.15-27.65,.45-9.04,5.1-17.5,5.84-26.53,.52-6.32,.03-12.68-.55-19.02-6.62,15.97-10.27,33.47-10.27,51.83,0,74.79,60.63,135.42,135.42,135.42s135.42-60.63,135.42-135.42S217.39,11.77,142.59,11.77Z"/>
        </g>
        <path class="cls-7" d="M219.11,76.71c10.08-5.01,18.9-11.37,21.88-20.41,4.62-14-2.68-12.36-5.79-18.2-3.36-6.3-1.08-8.27-10.77-15.22-1.37-.98-2.61-1.73-4.12-2.47-16.48-8.15-35.72-12.23-51.02-11.94-13.16,.25-25.31,2.7-35.49,5.62,29,1.03,53.32,4.42,68.64,12.06,7.38,3.68,11.58,8.35,14.31,14.22,2.66,5.73,13.35,7.6,9.56,16.32-3.49,8.03-18.47,15.75-32.84,21.5-7,2.8-13.51,6.8-21.14,8.34-22.34,4.5-46.84,4.8-70.52,8.04-17.13,2.34-32.07,10.17-47.21,18.29-8.03,4.31-17.38,3.67-26.78,11.86-8.43,7.35-11.09,18.16-14.62,28.05-6.94,19.44-5.62,41.96,3.6,65.11,1.67,4.19,3.64,8.25,5.87,12.17C-.12,177.9,11.42,137.89,53.15,116.74c8.11-4.11,18.69-4.44,29.05-7.08,9.15-2.33,17.85-9.24,28.72-8.23,22.72,2.11,34.72-.56,51.6-6.64,21.56-7.76,41.43-10.56,56.58-18.09h0Z"/>
        <path class="cls-8" d="M136.5,59.18c10.33-2.22,22.02-9.71,31.67-13.52,9.43-3.72,19.23-5.19,23.83-9.65,.14-.14,.28-.28,.42-.42,3.22-3.31,4.67-7.67,4.23-11.96-.02-.22-.05-.44-.08-.66-.28-1.92-.94-3.82-2-5.6-1.59-2.66-3.36-5.15-5.82-6.94-.18-.13-.36-.26-.55-.39C173.79,.04,149.49,.41,127.99,.04c-15.22-.26-32.47,.77-45.49,6.5-13.24,5.83-22.12,18.45-33.26,27.14-2.84,2.22-6,4.17-9.08,6.19-3.64,2.38-9.14,4.64-11.94,7.77-7.08,7.93-11.13,16.93-15.9,26.49-3.88,7.78-6.92,16.07-9.01,24.83,4.94-12.67,10.68-11.63,20.33-16.58,1.62-.83,3.35-1.83,5.21-3.09,10-6.79,19.63-12.53,29.84-15.19,22.84-5.96,53.74,.26,77.79-4.92h0Zm26.03,35.62c-16.87,6.07-28.87,8.75-51.6,6.64-10.87-1.01-19.57,5.91-28.72,8.23-10.37,2.64-20.94,2.96-29.05,7.08-27.13,13.75-41.5,35.47-41.97,63.31-.25,14.99,3.52,31.75,11.5,49.99,1.69,2.96,3.52,5.84,5.5,8.64,4.49,6.36,11.75,11.84,17.18,18.12,4.81,5.55,8.9,10.41,14.21,15.2,9.72,8.76,24.57,11.95,41.29,14.26,15.59,2.16,31.51,7.26,47.82,5.21,11.46-1.44,25.15-4.28,38.96-9.06,20.73-7.18,41.39-19.67,54.12-39.11-.85,1.07-1.79,2.1-2.83,3.13-13.11,12.98-32.48,25.52-50.86,30.77-9.26,2.64-18.64,4.08-27.72,4.27-9.89,.2-19.4-1.09-27.96-3.95-21.4-7.16-41.33-10.04-56.36-23.41-17.53-15.59-23.51-46.02-18.27-63.45,2.35-7.83,10.09-13.31,15.86-19.93,12.28-14.08,14.92-32.59,47.16-31.64,13.53,.4,27.18-12.34,42.76-14.59,14.68-2.12,27.93-2.59,42.52-14.65,8.16-6.74,16.02-8.18,23.82-12.66,10.95-6.28,20.9-14.58,23.83-27.43,1.05-4.62,1.2-9.83,.16-15.74-.49-1.52-1.11-3.07-1.86-4.64-5.94-12.41-17.84-22.13-31.69-28.98,1.51,.75,2.75,1.49,4.12,2.47,9.69,6.95,7.41,8.93,10.77,15.22,2.99,5.6,9.84,4.31,6.29,16.58-.15,.51-.31,1.05-.5,1.61-2.98,9.03-11.8,15.4-21.88,20.41-15.16,7.53-35.03,10.33-56.58,18.09h0Zm104.05-2.15c22.05,13.01,21.56,58.52,16.67,81.69-5.27,24.96-24.02,54.62-52.21,58.79-20.06,2.97-27.89,4-37.71-1.52-6.65-3.74-9.92-20.37-7.55-25.12,1.92-3.86,10.9-6.83,20.27-11.22,11.48-5.38,21.03-7.36,29.39-20.48,8.08-12.68,21.49-11.25,29.35-28.18,6.24-13.43,10.26-32.67,1.8-53.96h0Z"/>
        <path class="cls-12" d="M78.35,238.65c-6.06-11.55-4.24-26.57-3.36-38.74,.56-7.79,2.72-15.23,6.69-21.68,10.43-16.95,29.09-28.93,50.61-36.97,25.44-9.51,60.24-11.39,79.43-19.58,8.35-3.56,14-12.08,20.9-19.22,6.12-6.34,12.38-5.34,18.02-18.63,1.75-4.13,3.25-8.29,4.1-12.58,1.08-5.5,1.08-11.19-.87-17.24,1.04,5.91,.9,11.12-.16,15.74-2.93,12.85-12.88,21.15-23.83,27.43-7.81,4.48-15.67,5.92-23.82,12.66-14.59,12.06-27.83,12.53-42.52,14.65-15.58,2.25-29.23,14.99-42.76,14.59-32.24-.95-34.88,17.56-47.16,31.64-5.77,6.61-13.5,12.1-15.86,19.93-5.24,17.43,.74,47.86,18.27,63.45,15.03,13.37,34.96,16.26,56.36,23.41,8.56,2.86,18.07,4.15,27.96,3.95,9.07-.18,18.46-1.63,27.72-4.27,18.38-5.24,37.75-17.79,50.86-30.77,3.33-3.29,5.63-6.66,7.48-10.96,.37-.85,.72-1.71,1.07-2.59-13.03,15.33-28.85,25.3-48.7,30.87-8.11,2.28-16.95,2.41-25.3,5.05-30.58,9.67-40.79,5.97-56.38,.76-9.91-3.31-19.31-8.78-25.83-14.51-5.39-4.73-9.77-10.41-12.91-16.41h0Z"/>
        <path class="cls-10" d="M168.17,45.66c-9.66,3.81-21.34,11.3-31.67,13.52-24.05,5.18-54.95-1.04-77.79,4.92-10.2,2.66-19.84,8.4-29.84,15.19-12.92,8.77-19.78,4.86-25.54,19.67C-.04,113.05-.95,128.37,1.06,144.74c1.37,11.13,3.73,19.95,7.84,24.14-3.15-29.56-.63-52.73,11.04-68.91,3.49-4.85,8.96-9.8,14.49-12.5,6.67-3.25,13.82-3.92,22.95-6.35,8.25-2.19,16.44-8.83,27-11.22,13.06-2.96,26.87-2.19,40.8-2.43,10.31-.18,26.46,.5,39.23-1.78,12.34-2.2,17.04-7.45,25.49-16.66,6.2-6.76,19.08-8.16,8.28-25.45-1.25-2.01-2.38-4.17-3.62-6.24,3.54,5.94,2.69,13.28-2.14,18.24-.14,.14-.28,.28-.42,.42-4.6,4.47-14.4,5.93-23.83,9.65h0Z"/>
        <path class="cls-9" d="M68.47,40.42c-11.04,8.39-17.52,9.56-25.51,22.78-1.98,3.28-3.59,6.76-5.11,10.29,6.89-4.17,13.73-7.53,20.86-9.39,22.84-5.96,53.74,.26,77.79-4.92,10.33-2.22,22.02-9.71,31.67-13.52,5.93-2.34,12-3.79,16.83-5.65-1.16-2.41-2.41-4.75-4.26-6.65-13.52-13.9-21.26-14.25-37.58-14.12-5.85,.05-11.68-.87-17.54-.91-4.71-.03-9.49-.19-14.12,.68-6.75,1.27-13.45,3.11-19.81,5.69-12,4.88-14.3,8.93-23.23,15.71h0Zm42.46,61.01c-10.87-1.01-19.57,5.91-28.72,8.23-10.37,2.64-20.94,2.96-29.05,7.08-9.7,4.92-17.77,10.85-24.16,17.73-4.13,4.44-5.17,10.56-2.75,16.12,.61,1.39,1.25,2.85,1.91,4.39,7.04,16.31,4.25,17.06,19.81,28.92,2.71,2.06,6.34,3.85,10.26,5.38,2.79-7.11,9.96-12.34,15.38-18.56,12.28-14.08,14.92-32.59,47.16-31.64,13.53,.4,27.18-12.34,42.76-14.59,8.77-1.27,17.02-1.94,25.35-4.85,3.9-1.36,6.62-4.33,7.64-8.33,.55-2.17,1.17-4.31,1.98-6.44,2.6-6.86,4.37-14.46,4.75-22.09-12.16,3.74-26.06,6.73-40.74,12.01-16.87,6.07-28.87,8.75-51.6,6.64h0Z"/>
        <path class="cls-4" d="M186.04,133.41c-3.32-.14-6.64-.37-9.93,.08-5.48,.74-10.7,2.85-16.12,3.95-4.35,.88-7.85,.74-12.06,2.14-1.72,.57-3.35,2.93-5.04,3.56-3.54,1.33-7.55,.92-11.18,1.97-10.31,3-23.74,9.9-32.24,16.23-1.95,1.45-2.3,4.35-3.95,6.14-1.76,1.92-4.39,2.9-6.14,4.82-3.39,3.71-10.67,15.64-8.77,20.83,.53,1.45,1.04,2.47,2.15,3.56,11.02,2.05,19.95,1.86,32.36-2.62,26.18-9.46,23.71-17.08,40.35-31.8,5.18-4.58,12.17-6.8,17.33-11.4,8.24-7.34,11.57-12.48,13.25-17.46h0ZM46.23,85.78c-7.42,1.01-12.24,3.98-16.47,9.15-2.46,5.26-4.9,10.53-6.75,16.02-3.11,9.24-4.09,15.62-3.51,21.47,1.98-3.45,4.2-7.32,5.69-9.03,2-2.29,4.31-4.43,7.02-5.81,4.8-2.45,12.65-2.64,19.19-6.25,4.65-2.57,8.31-6.82,13.16-8.99,4.13-1.85,8.94-1.53,13.27-2.85,3.27-1,6.18-3,9.43-4.06,11.91-3.88,16.02-3.3,26.21-5.15,2.89-.52,5.42-2.48,8.33-2.85,4.97-.63,10.02,.19,15.02-.11,6.49-.39,12.92-1.57,19.41-1.97,4.56-.29,9.17,.46,13.71-.11,8.57-1.08,23.14-5.41,24.7-15.08-.95-3.27-2.29-6.44-4.07-9.42-.72-1.22-1.75-2.19-2.85-3.1-2.5-.76-2.68-.64-5.83,2.16-8.11,7.22-7.58,9.05-19.41,11.18-3.17,.57-6.48-.3-9.65,.22-3.97,.66-7.6,3.2-11.62,3.29-5.99,.13-11.83-1.82-17.76-2.63-11.54-1.57-32.13-2.88-42.98,1.54-6.46,2.63-11.98,7.16-18.2,10.31-1.81,.92-3.79,1.6-5.81,1.86-3.37,.44-6.83-.24-10.2,.22h0Zm133.04,73.35c2.02,6.37,12.5-4.04,14.91-4.25,24.8-2.12-22.3-19.04-14.91,4.25h0Zm-4,2.21c-4.81-3.77-15.8,.97-18.61,6.38-2.34,4.5-7.36,15.35,.06,18.16,7.46,2.82,13.22-12.16,20.53-14.39,3.93-1.19,.34-8.33-1.97-10.15h0Zm-79.39,52.5c14.45,2.08,46.47,3.69,34.54-10.19-7.18-8.35-9.86-3.4-22.22-.36-8.39,2.06-10.87-1.18-16.01-.86-7.22,.45-9.5,9.52,3.68,11.41h0Zm40.14-6.62c1.16,2.27,5.69-2.8,6.07-4.32,1.49-5.98-1.4-4.47-6.3-3.73-6.74,1.01-1.44,4.79,.22,8.05h0Z"/>
        <path class="cls-3" d="M76.02,254.1c-5.25-4.67-9.46-10.67-12.65-17.25-1.88-1.97-2.45-4.77-3.12-7.53-.48-1.36-.92-2.74-1.32-4.12-.27-.57-.58-1.12-.95-1.63-6.55-8.98-21.88-16.92-29.61-28.29-3.21-4.72-3.22-10.99-5.48-16.23-.93-2.16-2.34-3.06-3.74-3.81-5.82-3.13-6.06-8.89-5.01-14.96-1.85,6.19-2.85,12.79-2.96,19.78-.25,14.99,3.52,31.75,11.5,49.99,1.69,2.96,3.52,5.84,5.5,8.64,4.49,6.36,11.75,11.84,17.18,18.12,4.81,5.55,8.9,10.41,14.21,15.2,9.72,8.76,24.57,11.95,41.29,14.26,15.59,2.16,31.51,7.26,47.82,5.21,11.46-1.44,25.15-4.28,38.96-9.06,20.73-7.18,41.39-19.67,54.12-39.11-.85,1.07-1.79,2.1-2.83,3.13-13.11,12.98-32.48,25.52-50.86,30.77-9.26,2.64-18.64,4.08-27.72,4.27-9.89,.2-19.4-1.09-27.96-3.95-21.4-7.16-41.33-10.04-56.36-23.41h0ZM19.17,65.89c.96-2.98,1.21-5.96,2.35-9.18-3.41,5.49-6.16,11.34-9.18,17.42-3.88,7.78-6.92,16.07-9.01,24.83,3.6-9.23,7.62-11.18,13.26-13.47-.02-.24-.04-.49-.06-.73-.26-3.39-.8-6.5-.33-9.87,.45-3.21,1.96-5.91,2.96-8.99h0Zm29.61-28.51c3.37-.94,7.37-.66,10.09-2.85,6.45-5.2,1.79-10.33,16.23-16.67,10.11-4.44,16.98-4.09,27.85-3.29,6.57,.49,15.6-2.07,23.7-1.86,.51,.01,1.02,.04,1.52,.07,2.27,.17,4.51,.58,6.75,.99,.88,.16,1.76,.32,2.64,.47,1.47,.24,2.94,.44,4.43,.51,2.01,.11,3.81,.09,5.5,.03,7.21-.26,12.26-1.38,21.25,2.16,4.05,1.6,7.65,6.59,11.62,8.37,5.12,2.29,9.49,4.82,14.34,7.29,1.6-2.75,2.27-5.88,1.96-8.98-.02-.22-.05-.44-.08-.66-.28-1.92-.94-3.82-2-5.6-1.59-2.66-3.36-5.15-5.82-6.94-.18-.13-.36-.26-.55-.39C173.79,.04,149.49,.41,127.99,.04c-15.22-.26-32.47,.77-45.49,6.5-13.24,5.83-22.12,18.45-33.26,27.14-2.77,2.16-5.84,4.07-8.85,6.04,2.78-.79,5.57-1.56,8.38-2.34h0Zm192.22,18.92c-1.95,5.91-6.39,10.67-12.06,14.66,8.1,.96,18.53,8.9,11.25,19.25,6.45-5.28,11.56-11.85,13.52-20.45,1.05-4.62,1.2-9.83,.16-15.74-.49-1.52-1.11-3.07-1.86-4.64-5.94-12.41-17.84-22.13-31.69-28.98,1.51,.75,2.75,1.49,4.12,2.47,9.69,6.95,7.41,8.93,10.77,15.22,2.99,5.6,9.84,4.31,6.29,16.58-.15,.51-.31,1.05-.5,1.61h0Zm-2.08,139.2c-4.14,4.92-17.18,6.84-20.62,12.28-2.64,4.19-2.64,9.76-5.48,13.82-2.79,3.99-6.64,7.41-10.97,9.65-1.93,1-4.11,1.29-6.32,1.51,4.14,1.96,8.11,2.77,13.05,2.8,5.65,.03,12.57-.96,22.46-2.43,9.25-1.37,17.48-5.48,24.55-11.28,14.48-11.86,24.11-30.75,27.65-47.52,4.65-22.05,5.32-64.35-13.64-79.59,8.18,9.21,13.68,24.04,7.67,38.21-.19,.44-.38,.88-.59,1.32-3.37,7.06-10.92,16.32-15.61,25.44-4.94,9.58-3.65,10.9-12.98,17.28-.97,.66-1.98,1.33-2.98,1.98-2.76,1.77-5.48,3.39-7.32,4.38,6.3,4.24,4.08,8.64,1.13,12.15h0Z"/>
        <path class="cls-11" d="M269.61,94.74c-.96-.77-1.97-1.47-3.03-2.1,8.46,21.29,4.43,40.53-1.8,53.96-4.08,8.79-9.66,12.63-15.21,16.06-5.14,3.18-10.25,6.02-14.14,12.11-8.36,13.11-17.91,15.1-29.39,20.48-9.37,4.39-18.35,7.37-20.27,11.22-1.79,3.6-.35,13.99,3.33,20.45-1.18-4.57-1.01-8,.76-11.34,3.29-6.2,16.42-16.13,22.25-20.28,8.25-5.87,16.04-7.2,24.56-11.4,1.72-.85,5.04-2.78,8.42-4.96,1-.64,2.01-1.31,2.98-1.98,9.34-6.38,8.05-7.7,12.98-17.28,4.7-9.12,12.25-18.38,15.61-25.44,.21-.44,.41-.88,.59-1.32,6.01-14.17,.51-29.01-7.67-38.21Z"/>
        <path class="cls-6" d="M136.5,59.18c10.33-2.22,22.02-9.71,31.67-13.52,9.43-3.72,19.23-5.19,23.83-9.65,.14-.14,.28-.28,.42-.42,3.22-3.31,4.67-7.67,4.23-11.96-.02-.22-.05-.44-.08-.66-.28-1.92-.94-3.82-2-5.6-1.59-2.66-3.36-5.15-5.82-6.94-.18-.13-.36-.26-.55-.39C173.79,.04,149.49,.41,127.99,.04c-15.22-.26-32.47,.77-45.49,6.5-13.24,5.83-22.12,18.45-33.26,27.14-2.84,2.22-6,4.17-9.08,6.19-3.64,2.38-9.14,4.64-11.94,7.77-7.08,7.93-11.13,16.93-15.9,26.49-3.88,7.78-6.92,16.07-9.01,24.83,4.94-12.67,10.68-11.63,20.33-16.58,1.62-.83,3.35-1.83,5.21-3.09,10-6.79,19.63-12.53,29.84-15.19,22.84-5.96,53.74,.26,77.79-4.92h0Z"/>
        <path class="cls-5" d="M162.53,94.79c-16.87,6.07-28.87,8.75-51.6,6.64-10.87-1.01-19.57,5.91-28.72,8.23-10.37,2.64-20.94,2.96-29.05,7.08-27.13,13.75-41.5,35.47-41.97,63.31-.25,14.99,3.52,31.75,11.5,49.99,1.69,2.96,3.52,5.84,5.5,8.64,4.49,6.36,11.75,11.84,17.18,18.12,4.81,5.55,8.9,10.41,14.21,15.2,9.72,8.76,24.57,11.95,41.29,14.26,15.59,2.16,31.51,7.26,47.82,5.21,11.46-1.44,25.15-4.28,38.96-9.06,20.73-7.18,41.39-19.67,54.12-39.11-.85,1.07-1.79,2.1-2.83,3.13-13.11,12.98-32.48,25.52-50.86,30.77-9.26,2.64-18.64,4.08-27.72,4.27-9.89,.2-19.4-1.09-27.96-3.95-21.4-7.16-41.33-10.04-56.36-23.41-17.53-15.59-23.51-46.02-18.27-63.45,2.35-7.83,10.09-13.31,15.86-19.93,12.28-14.08,14.92-32.59,47.16-31.64,13.53,.4,27.18-12.34,42.76-14.59,14.68-2.12,27.93-2.59,42.52-14.65,8.16-6.74,16.02-8.18,23.82-12.66,10.95-6.28,20.9-14.58,23.83-27.43,1.05-4.62,1.2-9.83,.16-15.74-.49-1.52-1.11-3.07-1.86-4.64-5.94-12.41-17.84-22.13-31.69-28.98,1.51,.75,2.75,1.49,4.12,2.47,9.69,6.95,7.41,8.93,10.77,15.22,2.99,5.6,9.84,4.31,6.29,16.58-.15,.51-.31,1.05-.5,1.61-2.98,9.03-11.8,15.4-21.88,20.41-15.16,7.53-35.03,10.33-56.58,18.09h0Z"/>
      </g>
    </g>
  </g>
</svg>