<?xml version="1.0" encoding="UTF-8"?>
<svg xmlns="http://www.w3.org/2000/svg" xmlns:xlink="http://www.w3.org/1999/xlink" viewBox="0 0 293 285.73">
  <defs>
    <style>
      .cls-1 {
        fill: url(#radial-gradient);
      }

      .cls-1, .cls-2, .cls-3, .cls-4, .cls-5, .cls-6, .cls-7, .cls-8, .cls-9, .cls-10, .cls-11, .cls-12, .cls-13, .cls-14, .cls-15, .cls-16, .cls-17, .cls-18, .cls-19, .cls-20, .cls-21, .cls-22, .cls-23, .cls-24 {
        fill-rule: evenodd;
      }

      .cls-25, .cls-4, .cls-8, .cls-11, .cls-15, .cls-26, .cls-18, .cls-27, .cls-22 {
        mix-blend-mode: multiply;
      }

      .cls-25, .cls-8, .cls-15, .cls-18 {
        opacity: .4;
      }

      .cls-2 {
        fill: url(#radial-gradient-5);
      }

      .cls-2, .cls-28, .cls-5, .cls-6, .cls-7, .cls-9, .cls-12, .cls-16, .cls-17, .cls-20, .cls-23, .cls-29 {
        mix-blend-mode: screen;
      }

      .cls-2, .cls-27 {
        opacity: .65;
      }

      .cls-3 {
        fill: url(#radial-gradient-2);
      }

      .cls-28 {
        opacity: .2;
      }

      .cls-4 {
        fill: url(#New_Gradient_Swatch_60-6);
      }

      .cls-5 {
        fill: url(#radial-gradient-14);
      }

      .cls-6 {
        fill: url(#radial-gradient-16);
      }

      .cls-30 {
        isolation: isolate;
      }

      .cls-7 {
        fill: url(#radial-gradient-3);
      }

      .cls-8 {
        fill: url(#New_Gradient_Swatch_60-5);
      }

      .cls-9 {
        fill: url(#radial-gradient-12);
      }

      .cls-10 {
        fill: url(#radial-gradient-6);
      }

      .cls-11 {
        fill: url(#New_Gradient_Swatch_60);
      }

      .cls-11, .cls-22 {
        opacity: .55;
      }

      .cls-12 {
        fill: url(#radial-gradient-15);
      }

      .cls-13 {
        fill: url(#radial-gradient-11);
      }

      .cls-14 {
        fill: url(#radial-gradient-8);
      }

      .cls-15 {
        fill: url(#New_Gradient_Swatch_60-3);
      }

      .cls-16 {
        fill: url(#radial-gradient-13);
      }

      .cls-17 {
        fill: url(#radial-gradient-10);
      }

      .cls-26, .cls-29 {
        opacity: .5;
      }

      .cls-18 {
        fill: url(#New_Gradient_Swatch_60-4);
      }

      .cls-19 {
        fill: url(#radial-gradient-7);
      }

      .cls-20 {
        fill: url(#radial-gradient-17);
      }

      .cls-20, .cls-23 {
        opacity: .75;
      }

      .cls-21 {
        fill: url(#radial-gradient-4);
      }

      .cls-22 {
        fill: url(#New_Gradient_Swatch_60-2);
      }

      .cls-23 {
        fill: url(#radial-gradient-9);
      }

      .cls-24 {
        fill: url(#radial-gradient-18);
      }
    </style>
    <radialGradient id="radial-gradient" cx="93.74" cy="56.34" fx="93.74" fy="56.34" r="267.61" gradientUnits="userSpaceOnUse">
      <stop offset="0" stop-color="#ffaddb"/>
      <stop offset=".07" stop-color="#fca0d4"/>
      <stop offset=".2" stop-color="#f780c2"/>
      <stop offset=".37" stop-color="#ef4ca5"/>
      <stop offset=".5" stop-color="#e8218d"/>
      <stop offset=".96" stop-color="#63004e"/>
    </radialGradient>
    <radialGradient id="radial-gradient-2" cx="137.49" cy="108.84" fx="137.49" fy="108.84" r="189.07" gradientUnits="userSpaceOnUse">
      <stop offset=".45" stop-color="#fff"/>
      <stop offset=".5" stop-color="#f8f3f8"/>
      <stop offset=".58" stop-color="#e6d6e8"/>
      <stop offset=".69" stop-color="#c9a6cd"/>
      <stop offset=".83" stop-color="#a263a7"/>
      <stop offset=".97" stop-color="#700f78"/>
      <stop offset="1" stop-color="#670070"/>
    </radialGradient>
    <radialGradient id="radial-gradient-3" cx="158.88" cy="154.53" fx="158.88" fy="154.53" r="163.51" gradientUnits="userSpaceOnUse">
      <stop offset=".04" stop-color="#000"/>
      <stop offset=".84" stop-color="#000"/>
      <stop offset=".85" stop-color="#150b11"/>
      <stop offset=".9" stop-color="#673652"/>
      <stop offset=".93" stop-color="#a85785"/>
      <stop offset=".96" stop-color="#d770aa"/>
      <stop offset=".99" stop-color="#f47fc1"/>
      <stop offset="1" stop-color="#ff85ca"/>
    </radialGradient>
    <radialGradient id="radial-gradient-4" cx="78.52" cy="57.31" fx="78.52" fy="57.31" r="269.74" gradientUnits="userSpaceOnUse">
      <stop offset="0" stop-color="#843e8c"/>
      <stop offset="1" stop-color="#340e47"/>
    </radialGradient>
    <radialGradient id="radial-gradient-5" cx="117.56" cy="109.28" fx="117.56" fy="109.28" r="99.67" gradientUnits="userSpaceOnUse">
      <stop offset="0" stop-color="#ff8fcd"/>
      <stop offset="1" stop-color="#000"/>
    </radialGradient>
    <radialGradient id="radial-gradient-6" cx="80.98" cy="61.69" fx="80.98" fy="61.69" r="263.88" gradientUnits="userSpaceOnUse">
      <stop offset="0" stop-color="#f242f5"/>
      <stop offset="1" stop-color="#66005e"/>
    </radialGradient>
    <radialGradient id="radial-gradient-7" cx="186.37" cy="117.02" fx="186.37" fy="117.02" r="117.54" xlink:href="#radial-gradient-6"/>
    <radialGradient id="radial-gradient-8" cx="80.28" cy="80.41" fx="80.28" fy="80.41" r="191.89" gradientUnits="userSpaceOnUse">
      <stop offset="0" stop-color="#f946de"/>
      <stop offset=".12" stop-color="#cc39b6"/>
      <stop offset=".39" stop-color="#5c1a52"/>
      <stop offset=".6" stop-color="#000"/>
    </radialGradient>
    <radialGradient id="New_Gradient_Swatch_60" data-name="New Gradient Swatch 60" cx="72.32" cy="111.59" fx="72.32" fy="111.59" r="51.73" gradientUnits="userSpaceOnUse">
      <stop offset="0" stop-color="#fff"/>
      <stop offset=".1" stop-color="#fbf9fb"/>
      <stop offset=".22" stop-color="#f1e8f2"/>
      <stop offset=".36" stop-color="#e1cde3"/>
      <stop offset=".51" stop-color="#caa7ce"/>
      <stop offset=".68" stop-color="#ad77b2"/>
      <stop offset=".84" stop-color="#8b3c92"/>
      <stop offset="1" stop-color="#670070"/>
    </radialGradient>
    <radialGradient id="radial-gradient-9" cx="63.53" cy="62.49" fx="63.53" fy="62.49" r="175.55" xlink:href="#radial-gradient-5"/>
    <radialGradient id="radial-gradient-10" cx="64.27" cy="187.27" fx="64.27" fy="187.27" r="71.76" xlink:href="#radial-gradient-5"/>
    <radialGradient id="radial-gradient-11" cx="132.54" cy="127.8" fx="132.54" fy="127.8" r="178.36" gradientUnits="userSpaceOnUse">
      <stop offset=".49" stop-color="#fff"/>
      <stop offset=".54" stop-color="#fbf9fb"/>
      <stop offset=".61" stop-color="#f1e8f2"/>
      <stop offset=".68" stop-color="#e1cde3"/>
      <stop offset=".75" stop-color="#caa7ce"/>
      <stop offset=".84" stop-color="#ad77b2"/>
      <stop offset=".92" stop-color="#8b3c92"/>
      <stop offset="1" stop-color="#670070"/>
    </radialGradient>
    <radialGradient id="New_Gradient_Swatch_60-2" data-name="New Gradient Swatch 60" cx="258.52" cy=".62" fx="258.52" fy=".62" r="128.27" xlink:href="#New_Gradient_Swatch_60"/>
    <radialGradient id="New_Gradient_Swatch_60-3" data-name="New Gradient Swatch 60" cx="84.52" cy="239.02" fx="84.52" fy="239.02" r="47.35" xlink:href="#New_Gradient_Swatch_60"/>
    <radialGradient id="New_Gradient_Swatch_60-4" data-name="New Gradient Swatch 60" cx="157.67" cy="249.55" fx="157.67" fy="249.55" r="46.57" xlink:href="#New_Gradient_Swatch_60"/>
    <radialGradient id="New_Gradient_Swatch_60-5" data-name="New Gradient Swatch 60" cx="241.52" cy="151.13" fx="241.52" fy="151.13" r="91.07" xlink:href="#New_Gradient_Swatch_60"/>
    <radialGradient id="New_Gradient_Swatch_60-6" data-name="New Gradient Swatch 60" cx="67.1" cy="76.43" fx="67.1" fy="76.43" r="68.03" xlink:href="#New_Gradient_Swatch_60"/>
    <radialGradient id="radial-gradient-12" cx="51.75" cy="102.96" fx="51.75" fy="102.96" r="92.58" gradientUnits="userSpaceOnUse">
      <stop offset="0" stop-color="#f7c7ff"/>
      <stop offset="1" stop-color="#000"/>
    </radialGradient>
    <radialGradient id="radial-gradient-13" cx="106.98" cy="82.22" fx="106.98" fy="82.22" r="47.56" xlink:href="#radial-gradient-12"/>
    <radialGradient id="radial-gradient-14" cx="64.97" cy="59.77" fx="64.97" fy="59.77" r="49.69" xlink:href="#radial-gradient-12"/>
    <radialGradient id="radial-gradient-15" cx="39.3" cy="234.01" fx="39.3" fy="234.01" r="57.86" xlink:href="#radial-gradient-12"/>
    <radialGradient id="radial-gradient-16" cx="143.29" cy="213.57" fx="143.29" fy="213.57" r="50.06" xlink:href="#radial-gradient-5"/>
    <radialGradient id="radial-gradient-17" cx="189.66" cy="118.79" fx="189.66" fy="118.79" r="85.56" xlink:href="#radial-gradient-5"/>
    <radialGradient id="radial-gradient-18" cx="193.04" cy="167.18" fx="193.04" fy="167.18" r="191.89" gradientUnits="userSpaceOnUse">
      <stop offset=".04" stop-color="#000"/>
      <stop offset=".92" stop-color="#000"/>
      <stop offset=".93" stop-color="#150b11"/>
      <stop offset=".95" stop-color="#673652"/>
      <stop offset=".97" stop-color="#a85785"/>
      <stop offset=".98" stop-color="#d770aa"/>
      <stop offset=".99" stop-color="#f47fc1"/>
      <stop offset="1" stop-color="#ff85ca"/>
    </radialGradient>
  </defs>
  <g class="cls-30">
    <g id="_Слой_1" data-name="Слой 1">
      <g>
        <path class="cls-1" d="M150.13,0c78.9,0,142.87,63.96,142.87,142.87s-63.96,142.87-142.87,142.87S7.27,221.77,7.27,142.87,71.23,0,150.13,0h0Z"/>
        <g class="cls-25">
          <path class="cls-3" d="M196.55,216.53c-8.86,30.33-33.91,30.19-60.06,32.11-25.18,1.85-43.94-14.17-63.31-27.33-14.12-9.59-27.47-13.43-37.46-26.57-12.69-16.68-20.26-43.83-20.26-67.13C15.45,70.48,55.03,22.6,108.26,9.89c9.05-2.16,22.44-5.75,32.16-6.08,40.66-1.39,65.03,8.34,85.3,28.61,15,15.01,6.53,42.44,12.77,63.85,3.14,10.77,12.36,24.36,9.86,44.77-3.67,29.93-41.26,39.44-51.8,75.5Zm96.45-73.67C293,63.96,229.04,0,150.13,0S7.27,63.96,7.27,142.87s63.96,142.87,142.87,142.87,142.87-63.96,142.87-142.87h0Z"/>
        </g>
        <path class="cls-7" d="M150.13,0c78.9,0,142.87,63.96,142.87,142.87s-63.96,142.87-142.87,142.87S7.27,221.77,7.27,142.87,71.23,0,150.13,0h0Z"/>
        <g class="cls-27">
          <path class="cls-21" d="M7.27,142.87c0,22.64,5.26,44.04,14.64,63.06,.06-.04,.12-.08,.18-.13,7.2-5.84,12.95-6.12,22.42-6.97,24.6-2.22,51.69,7.74,74.78,1.41,41.24-11.31,58.47-60.8,94.94-85.04,17.11-11.37,38.21-21.02,57.08-29.72,3.56-1.64,5.88-3.41,7.23-5.33-6.41-13.1-14.76-25.07-24.69-35.54-.76,.03-1.49,.2-2.2,.52,5.67,4.38,5.62,13.89,.32,17.75-15.8,11.48-38.48,5.28-56.03,3.01-13.97-1.81-30.38-5.13-44.26-5.1-8.51,.02-16.24,.74-22.4,7.01-8.3,8.45-11,21.93-14.31,32.87-3.48,11.49-5.61,21.31-14.55,30.44-10.67,10.91-30.54,15.11-44.32,6.99-5.44-3.21-10.81-7.81-16.24-13.01-6.84-6.55-13.94-14.29-22.61-3.39-4.55,5.71-7.87,13.01-9.98,21.02v.17h0Zm65.03-47.54c-5.56,10.55-7.72,26,6.1,22.64,24.03-5.85,34.7-39.74,16.29-54.29-3.47-2.74-5.95,1.34-8.88,4.17-3.84,3.71-3.12,8.73-4.64,14.52-1.32,5.04-6.37,8.22-8.86,12.95h0Zm43.95,160.07c3.22-20.13-8.87-27-26.35-29.92-6.41-1.07-12.87-1.91-19.35-2.51-9.68-.9-26-.31-19.07,14.52,5.2,11.13,22.22,22.34,33.24,27.26,12.22,5.45,28.49,9.62,31.53-9.35h0Zm23.87-8.78c-5.29,4.96-6.01,16.27,.14,20.97,9.6,7.35,25.71,5.53,36.47,2.44,10.08-2.9,20.48-12.1,5.72-19.17-9.52-4.56-23.8-8.8-34.42-7.89-2.89,.25-5.78,1.66-7.9,3.64h0Zm73.39-49.79c14.49,6.85,38.29,8.75,51.61-1.58,13.97-10.82,17.43-40.75,11.99-57.36-6.04-18.45-17.08-23.66-35.18-17.65-13.27,4.41-34.67,22.44-40.79,34.68-7.62,15.26-3.69,34.32,12.36,41.91h0Z"/>
        </g>
        <path class="cls-2" d="M194.06,32.78c35.28,35.28,29.64,98.14-12.61,140.39-42.25,42.25-105.11,47.9-140.39,12.61C5.77,150.5,11.41,87.64,53.67,45.39,95.92,3.14,158.77-2.51,194.06,32.78h0Z"/>
        <path class="cls-10" d="M266.2,79.62c12.19-7.52,11.79-13.28,5.31-22.97-1.54-2.3-14.41-21.46-23.15-17.53,5.76,4.44,5.71,14.1,.32,18.02-16.04,11.65-39.07,5.36-56.88,3.05-14.19-1.84-30.84-5.21-44.93-5.18-8.64,.02-16.49,.75-22.74,7.12-8.43,8.58-11.17,22.26-14.53,33.37-3.53,11.66-5.7,21.63-14.78,30.91-10.83,11.07-31.01,15.34-44.99,7.09-5.53-3.26-10.97-7.93-16.49-13.21-6.95-6.65-14.15-14.51-22.96-3.44-15.55,19.54-12.03,58.03,.03,79.86,1.29,2.33,2.89,4.69,5.13,6.12,1.32,.84,3.47,1.1,4.68,.12,7.31-5.93,8.68-5.04,18.29-5.9,24.97-2.25,48.95,3.63,72.4-2.8,15.92-4.37,29.41-13.18,44.11-27.46,22.68-22.03,28.89-35.28,57.68-54.41,17.37-11.54,35.73-21.81,53.49-32.75ZM76.93,116.6c6.14-2.3,12.5-10.27,15.8-15.67,6.92-11.33,11.25-31.55-1.14-40.62-3.62-2.65-8.62-.99-11.6,1.89-3.9,3.77-3.17,8.87-4.71,14.74-1.34,5.12-5.76,11.87-8.29,16.67-2.64,5.01-4.7,10.27-3.4,15.59,1.82,7.51,7.51,9.58,13.35,7.39Zm7.22,105.62c-6.51-1.09-13.07-1.94-19.64-2.55-9.83-.91-24.99-1.49-17.95,13.57,5.28,11.3,22.56,22.68,33.74,27.67,12.41,5.54,27.51,10.94,30.6-8.32,3.27-20.44-9-27.41-26.75-30.37Zm93.96,25.77c-9.67-4.63-24.16-8.93-34.95-8.01-2.93,.25-5.87,1.68-8.02,3.69-5.37,5.04-6.1,16.52,.14,21.29,9.75,7.46,25.63,4.21,36.55,1.07,10.24-2.94,21.26-10.88,6.28-18.05Zm96.11-114.7c-6.13-18.73-17.34-24.02-35.72-17.91-13.47,4.47-35.2,22.78-41.41,35.21-7.74,15.49-3.75,34.84,12.55,42.54,14.71,6.95,38.87,8.88,52.4-1.6,14.18-10.99,17.69-41.37,12.17-58.23Z"/>
        <path class="cls-19" d="M197.09,150.58c-7.74,15.49-3.75,34.84,12.55,42.54,14.71,6.95,38.87,8.88,52.4-1.6,14.18-10.99,17.69-41.37,12.17-58.23-6.13-18.73-17.34-24.02-35.72-17.91-13.47,4.47-35.2,22.78-41.41,35.21h0Z"/>
        <g class="cls-28">
          <path class="cls-14" d="M266.2,79.62c12.19-7.52,11.79-13.28,5.31-22.97-1.54-2.3-14.41-21.46-23.15-17.53,5.76,4.44,5.71,14.1,.32,18.02-16.04,11.65-39.07,5.36-56.88,3.05-14.19-1.84-30.84-5.21-44.93-5.18-8.64,.02-16.49,.75-22.74,7.12-8.43,8.58-11.17,22.26-14.53,33.37-3.53,11.66-5.7,21.63-14.78,30.91-10.83,11.07-31.01,15.34-44.99,7.09-5.53-3.26-10.97-7.93-16.49-13.21-6.95-6.65-14.15-14.51-22.96-3.44-15.55,19.54-12.03,58.03,.03,79.86,1.29,2.33,2.89,4.69,5.13,6.12,1.32,.84,3.47,1.1,4.68,.12,7.31-5.93,8.68-5.04,18.29-5.9,24.97-2.25,48.95,3.63,72.4-2.8,15.92-4.37,29.41-13.18,44.11-27.46,22.68-22.03,28.89-35.28,57.68-54.41,17.37-11.54,35.73-21.81,53.49-32.75ZM76.93,116.6c6.14-2.3,12.5-10.27,15.8-15.67,6.92-11.33,11.25-31.55-1.14-40.62-3.62-2.65-8.62-.99-11.6,1.89-3.9,3.77-3.17,8.87-4.71,14.74-1.34,5.12-5.76,11.87-8.29,16.67-2.64,5.01-4.7,10.27-3.4,15.59,1.82,7.51,7.51,9.58,13.35,7.39Zm7.22,105.62c-6.51-1.09-13.07-1.94-19.64-2.55-9.83-.91-24.99-1.49-17.95,13.57,5.28,11.3,22.56,22.68,33.74,27.67,12.41,5.54,27.51,10.94,30.6-8.32,3.27-20.44-9-27.41-26.75-30.37Zm93.96,25.77c-9.67-4.63-24.16-8.93-34.95-8.01-2.93,.25-5.87,1.68-8.02,3.69-5.37,5.04-6.1,16.52,.14,21.29,9.75,7.46,25.63,4.21,36.55,1.07,10.24-2.94,21.26-10.88,6.28-18.05Zm96.11-114.7c-6.13-18.73-17.34-24.02-35.72-17.91-13.47,4.47-35.2,22.78-41.41,35.21-7.74,15.49-3.75,34.84,12.55,42.54,14.71,6.95,38.87,8.88,52.4-1.6,14.18-10.99,17.69-41.37,12.17-58.23Z"/>
        </g>
        <path class="cls-11" d="M87.41,132.13c-11.17,6.54-26.37,7.98-37.59,1.37-5.53-3.26-10.97-7.93-16.49-13.21-5.58-5.34-11.32-11.46-17.93-7.93,7.86-1.4,12.82,7.52,21.2,15.62,18.93,18.28,34.51,15.15,50.79,4.16h0Z"/>
        <path class="cls-23" d="M46.2,138.49c-8.13-4.84-15.54-15.6-22.64-22.33-4.01-3.8-6.02-3.09-8.06-.08-.32,.47-.51,.93-.61,1.49-4.7,26.8-.55,52.88,10.38,73.78,1.6,3.07,4.76,4.74,8.2,4.36,2.85-.32,8.9-3.17,14.79-2.89,17.24,.83,29.16,3.39,45.07,2.27,23.1-1.63,41.15-12.37,58.29-27.85,8.97-8.1,6.5-18.53,19.87-29.72,4.88-4.08,15.31-9.47,18.94-13.87,4.14-5.01,5.86-10.84,5.13-17.3-1.21-10.63-3.82-20.78-7.68-30.11-1.52-3.66-3.65-6.46-6.77-8.89-6.35-4.94-15.43-7.84-28.33-9.38-23.77-2.85-31.67,8.61-38.21,30.07-4.46,14.64-4.72,24.8-10.26,34.03-12.05,20.09-37.47,28.71-58.13,16.41h0Z"/>
        <path class="cls-17" d="M52.32,222.78c7.29,5.13,15.45,9.02,24.34,11.4,7.84,2.1,15.76,2.9,23.61,2.52,.73-.04,1.34-.44,1.65-1.1,.31-.66,.24-1.39-.2-1.97-4.87-6.49-13.26-9.44-24.3-11.48-7.1-1.31-17.06-3.07-24.12-1.17-.33,.09-.61,.19-.84,.29-.29,.13-.48,.39-.51,.71s.1,.61,.37,.8h0Z"/>
        <g class="cls-26">
          <path class="cls-13" d="M46.56,233.24c5.28,11.3,22.56,22.68,33.74,27.67,9.61,4.29,20.84,8.5,26.84,1.23-23.37-5.36-45.17-17.34-62.38-35.12,.08,1.7,.64,3.75,1.79,6.22Zm89.22,32.11c9.78,6.97,25.31,3.78,36.04,.7,6.95-2,14.25-6.29,13.55-11.09-16.03,6.97-32.9,10.34-49.6,10.39Zm138.43-132.05c-3.43-10.48-8.45-16.75-15.42-19.17,5.86,28.69,1.41,58.35-11.94,83.83,5.69-1.08,10.96-3.14,15.19-6.42,14.18-10.99,17.69-41.37,12.17-58.23Zm-8.02-53.67c3.96-2.44,6.59-4.7,8.12-6.96,3.17-4.71,1.57-9.46-2.81-16.01-1.54-2.3-14.41-21.46-23.15-17.53,.63,.49,1.2,1.04,1.69,1.64,3.99,4.86,3.42,12.89-1.37,16.37-4.02,2.92-8.48,4.71-13.19,5.73,3.22,4.23,6.21,8.71,8.93,13.44,2.39,4.13,4.51,8.35,6.38,12.62,5.16-3.07,10.3-6.16,15.4-9.3Z"/>
        </g>
        <path class="cls-22" d="M201.28,65.89c14.71,2.63,36.26,7.62,50.42-1.85,5.06-3.39,7.56-8.3,7.82-12.94,.31-5.4-2.39-10.43-7.58-12.25-.67-.24-1.3-.3-2-.19-.54,.08-1.07,.23-1.59,.46,.63,.49,1.2,1.04,1.69,1.64,3.99,4.86,3.42,12.89-1.37,16.37-16.04,11.65-39.07,5.36-56.88,3.05-14.19-1.84-30.84-5.21-44.93-5.18-3.45,0-6.78,.13-9.93,.68,21.74-.27,42.95,6.38,64.35,10.21h0Z"/>
        <path class="cls-15" d="M83.87,222.17c13.28,3.95,23.8,9.08,23.89,26.18,.01,2.6-.38,5.27-1.3,7.7-2.99,7.86-9.15,9.21-15.75,8.84,9.32,2.66,17.95,1.73,20.19-12.3,3.27-20.44-9-27.41-26.75-30.37-.09-.02-.19-.03-.28-.05h0Z"/>
        <path class="cls-18" d="M177.63,259.71c-9.22,6.58-24.35,9.31-33.87,9.06,9.05,2.01,19.93-.39,28.06-2.73,10.24-2.94,21.26-10.88,6.28-18.05-1.16-.55-2.38-1.1-3.66-1.64,5.15,2.9,10.99,7.79,3.19,13.36h0Z"/>
        <path class="cls-8" d="M260.27,186.33c-9.7,8.91-21.64,11.82-31.33,12.09,11.91,1.38,24.6-.31,33.1-6.89,14.18-10.99,17.69-41.37,12.17-58.23-1.94-5.95-4.4-10.54-7.44-13.84,12.24,19.36,10.26,51.49-6.5,66.88h0Z"/>
        <path class="cls-4" d="M78.55,110.55c-7.57,4.58-12.44,1.48-15.36-4.31,.03,.98,.15,1.97,.39,2.96,1.82,7.51,7.51,9.58,13.35,7.39,6.14-2.3,12.5-10.27,15.8-15.67,4.69-7.67,8.19-19.42,6.11-29.02,1.4,13.67-7.28,30.76-20.29,38.64h0Z"/>
        <path class="cls-9" d="M23.77,117.93c-2.04-2.47-5.01,2.59-3.24,6.41,8.85,19.23,23.81,32.89,45.71,31.05,17.89-1.5,39.38-17.84,46.27-36.26,1.11-2.98,1.84-6.01,2.12-9.04,.13-1.47-1.26-2.84-2.97,1.91-5.95,16.59-20.26,30.06-37.62,33.91-11.13,2.47-22.64,.12-33.33-8.37-6.72-5.34-12.67-14.45-16.93-19.61h0Z"/>
        <path class="cls-16" d="M125.25,70.19c-5.34,4.88-9.82,20.53-10.66,27.66-.63,5.36,1.26,10.86,3.57,.43,.45-2.02,.93-4.05,1.45-6.03,2.16-8.12,4.95-14.91,7.64-20.19,1.8-3.54,2.55-6.03-2.01-1.86h0Z"/>
        <path class="cls-5" d="M78.03,69.74c-.42,6.95-1.63,10.96-5.01,16.18-2.91,4.49-4.26,8.17-3.57,9.07,.64,.82,3.06-.78,7.14-5.52,5.09-5.91,7.6-11.54,8.34-20.02,.25-2.86-.83-5.79-2.51-6.16-2.82-.62-4.27,4.43-4.39,6.45h0Z"/>
        <path class="cls-12" d="M73.66,226.79c13.66,1.2,14.89-1.69,.83-4.63-12.18-2.55-19.04-1.65-19.12-.36-.05,.92,5.56,3.87,18.29,4.99h0Z"/>
        <path class="cls-6" d="M136.76,243.57c-4.12,3.52-1.83,5.49,2.96,6.08,5.01,.62,10.08,.83,15.12,.71,16.68-.4,21.52-4.82,1.6-8.8-5.44-1.09-16.12-1.03-19.68,2.01h0Z"/>
        <path class="cls-20" d="M197.54,177.29c-2.62-3.86-3.68-9.04-3.2-13.65,.9-8.6,4.94-15.95,10.37-22.34,5.31-6.25,16.49-16.53,24.49-18.97,2.32-.71,3.74-.57,3.95-.01,1.08,2.88-7.98,11.62-14.82,22.26-2.53,3.93-4.99,7.94-6.83,12.23-2.92,6.8-2.37,14.09-4.38,19.49-1.51,4.06-6.8,5.09-9.58,.99h0Z"/>
        <g class="cls-29">
          <path class="cls-24" d="M266.2,79.62c12.19-7.52,11.79-13.28,5.31-22.97-1.54-2.3-14.41-21.46-23.15-17.53,5.76,4.44,5.71,14.1,.32,18.02-16.04,11.65-39.07,5.36-56.88,3.05-14.19-1.84-30.84-5.21-44.93-5.18-8.64,.02-16.49,.75-22.74,7.12-8.43,8.58-11.17,22.26-14.53,33.37-3.53,11.66-5.7,21.63-14.78,30.91-10.83,11.07-31.01,15.34-44.99,7.09-5.53-3.26-10.97-7.93-16.49-13.21-6.95-6.65-14.15-14.51-22.96-3.44-15.55,19.54-12.03,58.03,.03,79.86,1.29,2.33,2.89,4.69,5.13,6.12,1.32,.84,3.47,1.1,4.68,.12,7.31-5.93,8.68-5.04,18.29-5.9,24.97-2.25,48.95,3.63,72.4-2.8,15.92-4.37,29.41-13.18,44.11-27.46,22.68-22.03,28.89-35.28,57.68-54.41,17.37-11.54,35.73-21.81,53.49-32.75ZM76.93,116.6c6.14-2.3,12.5-10.27,15.8-15.67,6.92-11.33,11.25-31.55-1.14-40.62-3.62-2.65-8.62-.99-11.6,1.89-3.9,3.77-3.17,8.87-4.71,14.74-1.34,5.12-5.76,11.87-8.29,16.67-2.64,5.01-4.7,10.27-3.4,15.59,1.82,7.51,7.51,9.58,13.35,7.39Zm7.22,105.62c-6.51-1.09-13.07-1.94-19.64-2.55-9.83-.91-24.99-1.49-17.95,13.57,5.28,11.3,22.56,22.68,33.74,27.67,12.41,5.54,27.51,10.94,30.6-8.32,3.27-20.44-9-27.41-26.75-30.37Zm93.96,25.77c-9.67-4.63-24.16-8.93-34.95-8.01-2.93,.25-5.87,1.68-8.02,3.69-5.37,5.04-6.1,16.52,.14,21.29,9.75,7.46,25.63,4.21,36.55,1.07,10.24-2.94,21.26-10.88,6.28-18.05Zm96.11-114.7c-6.13-18.73-17.34-24.02-35.72-17.91-13.47,4.47-35.2,22.78-41.41,35.21-7.74,15.49-3.75,34.84,12.55,42.54,14.71,6.95,38.87,8.88,52.4-1.6,14.18-10.99,17.69-41.37,12.17-58.23Z"/>
        </g>
      </g>
    </g>
  </g>
</svg>