<svg width="30" height="29" viewBox="0 0 30 29" fill="none" xmlns="http://www.w3.org/2000/svg">
<g clip-path="url(#clip0_31205_32)">
<path d="M30 14.7659C30 22.4071 23.2913 28.5897 15 28.5897C6.70866 28.5897 0 22.4071 0 14.7659C0 7.12465 6.70866 0.942017 15 0.942017C23.2913 0.942017 30 7.12465 30 14.7659Z" fill="#90DFAA"/>
<path d="M30 14.7659C30 16.7469 29.5512 18.6191 28.748 20.3172C26.4331 25.1936 21.1417 28.5897 15 28.5897C8.85827 28.5897 3.56693 25.1936 1.25197 20.3172C0.448819 18.6191 0 16.7469 0 14.7659C0 7.12465 6.70866 0.942017 15 0.942017C23.2913 0.942017 30 7.12465 30 14.7659Z" fill="#324A5E"/>
<path d="M18.0709 11.5874V15.3971C19.0866 15.8543 19.9134 16.638 20.3858 17.5959C20.6693 17.0081 20.8346 16.3768 20.8346 15.6801C20.8583 13.895 19.7244 12.3276 18.0709 11.5874Z" fill="#FF7058"/>
<path d="M11.9291 11.5874V15.3971C10.9134 15.8543 10.0866 16.638 9.61416 17.5959C9.33069 17.0081 9.16534 16.3768 9.16534 15.6801C9.14172 13.895 10.2756 12.3276 11.9291 11.5874Z" fill="#FF7058"/>
<path d="M17.7874 16.6817C19.8425 12.2624 18.8976 6.95054 15 3.35852C11.1023 6.95054 10.1575 12.2624 12.2126 16.6817H17.7874Z" fill="#FFD05B"/>
<path d="M15.1417 14.4828C15.1417 16.2027 15 17.5959 15 17.5959C15 17.5959 14.8583 16.2027 14.8583 14.4828C14.8583 12.763 15 11.3698 15 11.3698C15 11.3698 15.1417 12.763 15.1417 14.4828Z" fill="#FF7058"/>
<path d="M15 9.10574C15.6784 9.10574 16.2284 8.59891 16.2284 7.97371C16.2284 7.3485 15.6784 6.84167 15 6.84167C14.3216 6.84167 13.7717 7.3485 13.7717 7.97371C13.7717 8.59891 14.3216 9.10574 15 9.10574Z" fill="white"/>
<path d="M26.8583 19.7075C26.1023 19.7075 25.4173 19.9688 24.874 20.3824C24.5433 20.2518 24.189 20.1865 23.811 20.1865C22.3464 20.1865 21.1417 21.2967 21.1417 22.6682C21.1417 22.9948 21.2126 23.3213 21.3307 23.6043C20.8819 24.0397 20.5984 24.6275 20.5984 25.2806C20.2205 25.0847 19.7716 24.9758 19.3228 24.9758C19.2756 24.9758 19.252 24.9758 19.2047 24.9758C18.9921 24.3445 18.5197 23.8003 17.8819 23.4955C16.8189 22.2546 16.3701 19.5116 16.252 18.7279H13.7244C13.6063 19.5116 13.1575 22.2546 12.0945 23.4955C11.4803 23.8003 10.9842 24.3228 10.7716 24.9758C10.7244 24.9758 10.7008 24.9758 10.6535 24.9758C10.1811 24.9758 9.75589 25.0847 9.37794 25.2806C9.37794 24.6275 9.09447 24.0397 8.64566 23.6043C8.76377 23.3213 8.83463 22.9948 8.83463 22.6682C8.83463 21.2967 7.62991 20.1865 6.14172 20.1865C5.76377 20.1865 5.40944 20.2518 5.07873 20.3824C4.55904 19.9688 3.85038 19.7075 3.09448 19.7075C2.38581 19.7075 1.7244 19.9252 1.20471 20.3171C3.51967 25.1935 8.81101 28.5896 14.9527 28.5896C21.0945 28.5896 26.3858 25.1935 28.7008 20.3171C28.2283 19.9252 27.5669 19.7075 26.8583 19.7075Z" fill="#E6E9EE"/>
<path d="M23.9528 8.03897L24.7323 7.97366L23.9528 7.90835L24.2126 7.60357L23.8819 7.86481L23.811 7.12463L23.7402 7.86481L23.4095 7.60357L23.6929 7.90835L22.8898 7.97366L23.6929 8.03897L23.4095 8.34374L23.7402 8.10428L23.811 8.82268L23.8819 8.10428L24.2126 8.34374L23.9528 8.03897Z" fill="#FF7058"/>
<path d="M7.53545 10.1507L8.95278 10.0201L7.53545 9.91121L8.00789 9.38874L7.44097 9.82413L7.29923 8.51794L7.18112 9.82413L6.61419 9.38874L7.08663 9.91121L5.66931 10.0201L7.08663 10.1507L6.61419 10.6732L7.18112 10.2378L7.29923 11.5222L7.44097 10.2378L8.00789 10.6732L7.53545 10.1507Z" fill="#4CDBC4"/>
<path d="M24.3307 15.3319L25.441 15.2448L24.3307 15.136L24.7087 14.7223L24.2598 15.0707L24.1654 14.0475L24.0473 15.0707L23.6221 14.7223L23.9764 15.136L22.8661 15.2448L23.9764 15.3319L23.6221 15.7455L24.0473 15.3972L24.1654 16.4204L24.2598 15.3972L24.7087 15.7455L24.3307 15.3319Z" fill="#84DBFF"/>
</g>
<defs>
<clipPath id="clip0_31205_32">
<rect width="30" height="27.6477" fill="white" transform="translate(0 0.942017)"/>
</clipPath>
</defs>
</svg>
