<?xml version="1.0" encoding="UTF-8"?>
<svg xmlns="http://www.w3.org/2000/svg" xmlns:xlink="http://www.w3.org/1999/xlink" viewBox="0 0 289.17 289.29">
  <defs>
    <style>
      .cls-1 {
        fill: url(#radial-gradient);
      }

      .cls-1, .cls-2, .cls-3, .cls-4, .cls-5, .cls-6, .cls-7, .cls-8, .cls-9, .cls-10, .cls-11, .cls-12, .cls-13 {
        fill-rule: evenodd;
      }

      .cls-2 {
        fill: url(#radial-gradient-4);
        opacity: .7;
      }

      .cls-2, .cls-12 {
        mix-blend-mode: multiply;
      }

      .cls-3 {
        fill: url(#radial-gradient-7);
        opacity: .6;
      }

      .cls-3, .cls-5, .cls-6, .cls-8, .cls-9, .cls-10, .cls-11, .cls-13 {
        mix-blend-mode: screen;
      }

      .cls-4 {
        fill: url(#radial-gradient-2);
      }

      .cls-14 {
        isolation: isolate;
      }

      .cls-5 {
        fill: url(#radial-gradient-3);
      }

      .cls-6 {
        fill: url(#radial-gradient-12);
      }

      .cls-7 {
        fill: url(#linear-gradient);
      }

      .cls-8 {
        fill: url(#radial-gradient-10);
      }

      .cls-9 {
        fill: url(#radial-gradient-5);
      }

      .cls-10 {
        fill: url(#radial-gradient-9);
      }

      .cls-11 {
        fill: url(#radial-gradient-8);
      }

      .cls-12 {
        fill: url(#radial-gradient-6);
      }

      .cls-13 {
        fill: url(#radial-gradient-11);
      }
    </style>
    <linearGradient id="linear-gradient" x1="2.25" y1="182.61" x2="289.17" y2="182.61" gradientUnits="userSpaceOnUse">
      <stop offset="0" stop-color="#4f309e"/>
      <stop offset=".33" stop-color="#47298f"/>
      <stop offset="1" stop-color="#391d77"/>
    </linearGradient>
    <radialGradient id="radial-gradient" cx="93.75" cy="83.56" fx="93.75" fy="83.56" r="230.21" gradientUnits="userSpaceOnUse">
      <stop offset="0" stop-color="#71f5ff"/>
      <stop offset=".13" stop-color="#69e8ff"/>
      <stop offset=".36" stop-color="#56c8ff"/>
      <stop offset=".38" stop-color="#54c5ff"/>
      <stop offset=".92" stop-color="#1483ff"/>
    </radialGradient>
    <radialGradient id="radial-gradient-2" cx="102.35" cy="79.07" fx="102.35" fy="79.07" r="227.55" gradientUnits="userSpaceOnUse">
      <stop offset="0" stop-color="#7a369e"/>
      <stop offset=".23" stop-color="#6d349e"/>
      <stop offset=".63" stop-color="#4f309e"/>
      <stop offset="1" stop-color="#33128a"/>
    </radialGradient>
    <radialGradient id="radial-gradient-3" cx="46.34" cy="20.79" fx="46.34" fy="20.79" r="201.93" gradientUnits="userSpaceOnUse">
      <stop offset="0" stop-color="#8d6eff"/>
      <stop offset="1" stop-color="#000"/>
    </radialGradient>
    <radialGradient id="radial-gradient-4" cx="109.02" cy="105.74" fx="109.02" fy="105.74" r="238.41" gradientUnits="userSpaceOnUse">
      <stop offset=".45" stop-color="#fff"/>
      <stop offset=".5" stop-color="#f8f3f8"/>
      <stop offset=".58" stop-color="#e6d6e8"/>
      <stop offset=".69" stop-color="#c9a6cd"/>
      <stop offset=".83" stop-color="#a263a7"/>
      <stop offset=".97" stop-color="#700f78"/>
      <stop offset="1" stop-color="#670070"/>
    </radialGradient>
    <radialGradient id="radial-gradient-5" cx="63.93" cy="65.52" fx="63.93" fy="65.52" r="181.15" gradientUnits="userSpaceOnUse">
      <stop offset="0" stop-color="#91fbff"/>
      <stop offset="1" stop-color="#000"/>
    </radialGradient>
    <radialGradient id="radial-gradient-6" cx="124.92" cy="109.13" fx="124.92" fy="109.13" r="226.1" gradientUnits="userSpaceOnUse">
      <stop offset=".33" stop-color="#fff"/>
      <stop offset=".4" stop-color="#f3fafa"/>
      <stop offset=".52" stop-color="#d6edec"/>
      <stop offset=".68" stop-color="#a6d9d6"/>
      <stop offset=".87" stop-color="#64bdb9"/>
      <stop offset="1" stop-color="#35aaa4"/>
    </radialGradient>
    <radialGradient id="radial-gradient-7" cx="85.08" cy="152.85" fx="85.08" fy="152.85" r="266.81" gradientUnits="userSpaceOnUse">
      <stop offset="0" stop-color="#00e1ff"/>
      <stop offset="1" stop-color="#000"/>
    </radialGradient>
    <radialGradient id="radial-gradient-8" cx="177.99" cy="169.91" fx="177.99" fy="169.91" r="27.92" xlink:href="#radial-gradient-7"/>
    <radialGradient id="radial-gradient-9" cx="43.87" cy="85.14" fx="43.87" fy="85.14" r="32.25" xlink:href="#radial-gradient-7"/>
    <radialGradient id="radial-gradient-10" cx="102.76" cy="76.14" fx="102.76" fy="76.14" r="29.95" xlink:href="#radial-gradient-7"/>
    <radialGradient id="radial-gradient-11" cx="138.76" cy="116.48" fx="138.76" fy="116.48" r="31.84" xlink:href="#radial-gradient-7"/>
    <radialGradient id="radial-gradient-12" cx="198.58" cy="182.61" fx="198.58" fy="182.61" r="215.45" gradientUnits="userSpaceOnUse">
      <stop offset=".04" stop-color="#000"/>
      <stop offset=".84" stop-color="#000"/>
      <stop offset=".85" stop-color="#0e0915"/>
      <stop offset=".9" stop-color="#442e67"/>
      <stop offset=".93" stop-color="#6f4ca8"/>
      <stop offset=".96" stop-color="#8e61d7"/>
      <stop offset=".99" stop-color="#a16ef4"/>
      <stop offset="1" stop-color="#a973ff"/>
    </radialGradient>
  </defs>
  <g class="cls-14">
    <g id="_Слой_1" data-name="Слой 1">
      <g>
        <path class="cls-7" d="M2.25,123.89l.22,10.51,4.9,18.27,25.42,43.69,53.86,52.73,45.95,25.61,50.84,3.39,32.39-15.44,27.87-16.95,21.09-23.73,10.17-22.41,11.96-32.39,1.79-8.19,.48-5.45c-.76-30.02-59.27-51.43-121.73-60.37C92.16,82.39,8.29,82.5,2.25,123.89h0Z"/>
        <path class="cls-1" d="M144.87,5.93c77.86,0,140.98,63.12,140.98,140.98s-63.12,140.98-140.98,140.98S3.89,224.77,3.89,146.91,67.01,5.93,144.87,5.93h0Z"/>
        <path class="cls-4" d="M53.98,38.24c-1.14,2.38-1.92,4.34-4.09,6.63-7.32,7.71-23.32,16-23.73,27.77-.06,1.85,1.16,3.61,1.04,5.46-.26,3.67-1.53,7.2-2.17,10.83-.92,5.27,1.48,11.95,7.91,10.36,3.5-.87,10.58-3.33,11.49-3.11,3.44,.87,7.65,5.14,11.86,4.71,6.76-.7,12.49-6.81,18.17-8.57,12.34-3.82,25.08,9.38,29.47,21.37,6.39,17.44,13.05,39.55,18.92,43.5,3.53,2.37,9.95,3.74,11.91,5.08,6.37,4.39,10.27,18.47,14.36,23.44,4.53,5.52,11.01,7.99,18.83,5.84,6.29-1.73,18.74-4.4,22.78-4.9,11.12-1.37,32.51,.72,37.66-1.69,8-3.75,16.05-11.7,19.4-14.31,8.62-6.74,15.98-9.55,20.08-15.69,1.72-2.57,1.28-9.27,1.39-13.31,.16-6.16,4.63-8.17,6.78-12.62,5.52-11.39-3.25-33.61-7.16-44.91-1.12-3.26-2.53-6.42-3.58-9.7-.72-2.24-1.19-4.3-1.65-6.34-1.04-4.65-6.98-18.08-13.88-24.21-5.8-5.15-14.88-7.44-21.22-12.27C204.46,13.25,168.25,1.26,145.25,.01c-6.88-.37-28.68,6.99-42.26,11.22-14.18,4.42-28.55,8.7-40.48,17-3.83,2.66-6.51,5.81-8.53,10.01h0ZM12.75,141.04c-1.56,.83-3.83,.81-5.18-.47-2.9-2.76-5.01-10.35-5.33-16.68-1.2,7.5-1.37,15.2-1.82,23.02-1.14,19.63,.19,35.76,1.92,41.74,2.15,7.45,11.81,23.86,27.04,45.04,10.61,14.75,27.23,33.55,34.42,37.2,11.08,5.62,53.43,18.4,81.07,18.4,11.2,0,22.82-.7,34.02-2.51,11.82-1.92,28.57-5.59,33.66-8.31,11.22-6,29.99-23.52,42.09-38.45,9.11-11.24,24.75-31.69,26.14-35.51,1.94-5.36,7.61-33.52,8.4-50.98-1.38,14.44-6.03,13.81-12.09,24.99-2.56,4.72-4.35,9.82-6.4,14.78-4.74,11.46-9.26,25.86-16.01,36.15-2.61,3.98-5.88,7.59-9.6,10.55-2.42,1.92-5.45,3.11-8.47,3.77-2.03,.44-4.18-.98-6.21-.56-10.27,2.11-15.93,12.17-23.73,17.32-4.41,2.91-9.41,4.98-14.5,6.4-21.3,5.96-31.75-9.46-33.71-11.11-6.09-5.13-26.25-7.34-34.84-9.6-20.47-5.4-17.61-21.09-18.64-25.23-1.31-5.23-4-7.99-7.16-9.6-3.24-1.66-23.21-3.43-29.19-6.21-15.21-7.09-20.68-21.96-22.78-43.78-.65-6.69-2.71-19-4.05-21.28-3.06-5.19-9.06-7.64-14.5-6.31-2.41,.59-9.73,4.68-14.55,7.25h0Zm162.58,24.63c-1.27,1.16-2.67,7.99-2.69,9.93-.02,1.44,.67,3.85,1.83,3.65,3.78-.64,10.59-1.9,16.09-2.71,3.51-.52,7.4-.49,10.89-1.27,1.03-.23,2.19-1.23,2.43-2.48,.31-1.61-3.9-7.08-5.61-7.81-5.22-2.23-18.62-3.24-22.93,.69h0Zm-47.94-77.39c-8.14,.58-8.51,14.64-7.58,20.74,1.04,6.83,2.95,13.71,6.32,19.75,2.38,4.26,11.66,7.37,16.27,5.82,2.06-.69,3.99-2.85,4.17-5.02,.44-5.21-2.48-10.27-2.43-15.5,.05-5.32,3.88-17.06,1.25-19.44-4.69-4.25-12.38-6.76-18.01-6.36h0Zm-28.4-25.81c-2.25,.1-4.77,.78-6.29,2.64-1.37,1.68-2.42,4.7-1.4,6.78,2.86,5.87,7.45,10.55,11.96,14.88,1.37,1.31,3.51,2.2,5.12,1.51,1.73-.74,2.73-3.05,3.26-5.08,1.2-4.66,2.21-9.6,1.79-14.5-.17-1.91-1.84-3.65-3.42-4.33-3.5-1.51-7.34-2.04-11.02-1.88h0Zm-36.02,7.67c-5.04,.95-12.25,9.75-9.23,13.48,.99,1.22,2.84,2.16,4.42,1.75,4.1-1.07,7.55-4.02,11.39-5.87,1.43-.69,3.11-.84,4.43-1.74,2.3-1.57,1.25-6.04-.28-6.67-3.28-1.35-7.15-1.61-10.73-.94h0Z"/>
        <path class="cls-5" d="M45.85,161.38c-.65-6.69-2.71-19-4.05-21.28-3.06-5.19-9.06-7.64-14.5-6.31-2.41,.59-9.73,4.68-14.55,7.25-.47,.25-1,.42-1.56,.51,.02,7.11,1.52,13.19,7.75,20.11,3.39,3.77,7.62,3.27,13.75,11.67,1.81,2.48,2.64,5.64,4.71,7.91,3.27,3.58,6.82,7.14,11.11,9.42,1.88,1,3.92,1.65,6.02,2.13-4.98-7.89-7.43-18.41-8.68-31.4h0ZM127.39,88.29c-8.14,.58-8.51,14.64-7.58,20.74,1.04,6.83,2.95,13.71,6.32,19.75,2.38,4.26,11.66,7.37,16.27,5.82,2.06-.69,3.99-2.85,4.17-5.02,.44-5.21-2.48-10.27-2.43-15.5,.05-5.32,3.88-17.06,1.25-19.44-4.69-4.25-12.38-6.76-18.01-6.36h0Zm-28.4-25.81c-2.25,.1-4.77,.78-6.29,2.64-1.37,1.68-2.42,4.7-1.4,6.78,2.86,5.87,7.45,10.55,11.96,14.88,1.37,1.31,3.51,2.2,5.12,1.51,1.73-.74,2.73-3.05,3.26-5.08,1.2-4.66,2.21-9.6,1.79-14.5-.17-1.91-1.84-3.65-3.42-4.33-3.5-1.51-7.34-2.04-11.02-1.88h0Zm-36.02,7.67c-5.04,.95-12.25,9.75-9.23,13.48,.99,1.22,2.84,2.16,4.42,1.75,4.1-1.07,7.55-4.02,11.39-5.87,1.43-.69,3.11-.84,4.43-1.74,2.3-1.57,1.25-6.04-.28-6.67-3.28-1.35-7.15-1.61-10.73-.94h0ZM110.54,8.85c-2.68,.85-5.24,1.66-7.55,2.39-14.18,4.42-28.55,8.7-40.48,17-3.83,2.66-6.51,5.81-8.53,10.01-.25,.52-.48,1.02-.71,1.5-.83,1.75-1.68,3.34-3.37,5.12-3.07,3.23-7.67,6.57-12,10.22-5.33,4.49-10.26,9.47-11.46,15.32-.15,.73-.24,1.47-.27,2.23-.06,1.85,1.16,3.61,1.04,5.46-.26,3.67-1.53,7.2-2.17,10.83-.48,2.75-.06,5.87,1.37,8.02,1.31,1.97,3.46,3.1,6.54,2.34,3.5-.87,10.58-3.33,11.49-3.11,3.44,.87,7.65,5.14,11.86,4.71,6.76-.7,12.49-6.81,18.17-8.57,12.34-3.82,25.08,9.38,29.47,21.37,6.39,17.44,13.05,39.55,18.92,43.5,3.53,2.37,9.95,3.74,11.91,5.08,4.17,2.88,7.29,9.9,10.09,15.81,3.16-2.81,5.58-6.47,8.16-9.84,2.98-3.88,4.66-8.76,8.1-12.24,5.67-5.73,13.76-5.46,18.45-16.38,1.94-4.51,.56-10.05,2.64-14.5,2.5-5.36,8.22-8.77,10.73-14.12,1.86-3.96,3.24-8.27,3.83-12.64,.22-1.62,.33-3.25,.32-4.87-.08-9.78-3.29-19.29-4.52-29-.84-6.62,.15-13.54-1.69-19.96-3.13-10.89-9.59-12.15-16.76-17.7-4.26-3.3-7.45-8.08-12.24-10.54-6.3-3.24-13.36-4.95-20.34-6.21-6.74-1.23-11.61-1.07-18.45-.66-3.16,.19-5.72-.05-8.25-.27-1.41-.13-2.81-.25-4.29-.29h0Zm58.58,32.97c.12-1.29,1.73-2.25,3.01-2.45,6.48-1.03,12.99,7.34,14.31,13.28,.9,4.06,.16,8.35,.94,12.43,.74,3.88,2.8,7.43,3.58,11.3,2.74,13.59,3.32,23.81-4.71,35.21-5.12,7.28-11.38,5.73-11.67-3.58-.11-3.53,.99-7.06,2.26-10.36,4.2-10.89,9.38-13.17,9.23-26.36-.02-2.07-.32-4.33-1.51-6.03-1.41-2.02-5.62-3.6-5.84-4.52-.33-1.37-.73-5.11-2.07-7.16-1.54-2.35-3.69-2.15-5.46-4.33-1.62-2-2.32-4.88-2.07-7.44h0Zm-126.21,23.3c-2.19-1.06-.1-8.03,1.32-9.51,1.84-1.93,4.83-2.27,7.16-3.58,1.82-1.02,3.9-1.82,5.27-3.39,.84-.96,3.73-11.06,5.93-14.22,1.6-2.3,7.07-5.77,8.7-4.19,.85,.82,.22,5.24-.33,6.28-1.12,2.12-4.06,3.64-4.5,7.6-.16,1.44,1.02,7.34,.38,10.92-.45,2.51-1.47,5.34-3.58,6.78-2.31,1.58-5.61,.5-8.29,1.32-1.72,.52-2.93,2.35-4.71,2.64-2.43,.4-5.13,.41-7.34-.66h0Z"/>
        <path class="cls-2" d="M123.55,252.04c-5.28-1.71-36.66-7.45-44.82-16.57-3.83-4.29-6.77-12.46-10.17-13.93-1.29-.56-6.41-1.08-12.05-1.95-4.49-.69-9.31-1.61-12.8-2.94-5.56-2.12-10.57-5.87-14.69-10.17-15.97-16.66-8.95-19.89-14.88-39.17-1.44-4.67-5.34-8.27-7.16-12.8-1.98-4.96-2.8-9.32-2.98-13.3-.02-.4-.03-.8-.04-1.19-.03-1.92,.08-3.76,.27-5.53-1.09-3.23-1.81-7.1-1.99-10.59-1.2,7.5-1.37,15.2-1.82,23.02-1.14,19.63,.19,35.76,1.92,41.74,2.15,7.45,11.81,23.86,27.04,45.04,10.61,14.75,27.23,33.55,34.42,37.2,11.08,5.62,53.43,18.4,81.07,18.4,11.2,0,22.82-.7,34.02-2.51,11.82-1.92,28.57-5.59,33.66-8.31,11.22-6,29.99-23.52,42.09-38.45,9.11-11.24,24.75-31.69,26.14-35.51,1.94-5.36,7.61-33.52,8.4-50.98-.75,7.91-2.49,11.3-4.9,14.58-1.99,2.71-4.45,5.35-7.19,10.41-2.56,4.72-4.35,9.82-6.4,14.78-4.74,11.46-9.26,25.86-16.01,36.15-2.61,3.98-5.88,7.59-9.6,10.55-2.42,1.92-5.45,3.11-8.47,3.77-2.03,.44-4.18-.98-6.21-.56-10.27,2.11-15.93,12.17-23.73,17.32-4.41,2.91-9.41,4.98-14.5,6.4-16.12,4.51-26.03-3.23-30.74-7.97-3.77-3.8-11.36-6.37-13.34-6.72-2.3-.42-4.72-.23-7.17,.18-3.88,.65-13.65,.84-17.37-.37h0ZM244.07,87.84c1.15,7.14,6.07,13.49,6.4,20.71,.11,2.42-.34,4.27-1.06,5.97-2.67,6.24-9.14,10.48-6.09,33.19,.55,4.11,1.12,8.3,.75,12.43-.5,5.57-1.78,11.06-3.25,16.45,3-2.48,5.48-4.76,6.99-5.94,8.62-6.74,15.98-9.55,20.08-15.69,1.72-2.57,1.28-9.27,1.39-13.31,.15-5.73,4.02-7.87,6.3-11.72,.17-.29,.33-.59,.48-.9,5.52-11.39-3.25-33.61-7.16-44.91-1.12-3.26-2.53-6.42-3.58-9.7-.18-.56-.34-1.1-.49-1.64-.46-1.62-.81-3.17-1.15-4.7-1.04-4.65-6.98-18.08-13.88-24.21-5.8-5.15-14.88-7.44-21.22-12.27C204.46,13.25,168.25,1.26,145.25,.01c-2.81-.15-8.13,.99-14.35,2.68,8.66,1.04,18.53,2.24,27.95,3.92,9.66,1.72,18.84,3.95,25.71,7.03,3.12,1.4,4.75,4.98,7.53,6.97,4.66,3.31,10.09,5.45,14.69,8.85,3.86,2.85,6.73,6.89,10.54,9.79,3.07,2.33,6.38,4.2,8.85,7.16,2.94,3.51,4.28,7.34,6.59,11.3,3.68,6.32,7.41,10.29,9.98,17.14,1.42,3.78,.68,9.01,1.32,12.99h0Z"/>
        <path class="cls-9" d="M25.07,76.82c-7.59,14.34-13.8,30.51-15.63,46.7-.49,4.34-2.5,17.88,5.65,13.18,10.23-5.9,30.25-20.37,32.39,3.77,.97,10.94,2.15,39.96,8.1,48.02,7.46,10.11,24.37,19.27,48.96,15.06,8.07-1.38,16.5-10.02,16.19-13.18-.46-4.76-23.43-4.17,14.5-11.2,1.48-.28,3.05-1.7,3.2-3.2,.22-2.19-1.47-6.46-3.48-7.34-1.6-.7-3.81-1.12-6.19-1.51-11.18-1.85-13.63-3.3-16-12.01-4.17-15.28-5.35-31.04-13.31-46.08-5.3-10.01-15.91-13.63-25.23-10.36-6.89,2.42-19.68,11.29-26.74,10.92-4.32-.22-4.66-2.8-4.47-5.09,.18-2.12,.37-3.49-.56-4.17-1.69-1.24-7.13,.93-9.17,1.61-4.47,1.49-9.45,2.34-10.85-4.78-.53-2.68-.14-5.49,.28-8.19,.37-2.36,1.36-4.59,2.07-6.87,.48-1.56,1.17-3.06,1.51-4.66,.1-.48,.21-1.24-.24-1.46-.39-.19-.79,.46-.99,.85h0Z"/>
        <path class="cls-12" d="M240.81,176.6c-2.6,4.21-5.93,8.04-7.81,12.62-2.14,5.22,.82,11.97-6.03,20.34-1.99,2.43-5.22,3.82-8.29,4.52-15.01,3.44-33.78,1.76-47.45,13.56-8.08,6.97-7.3,18.09-21.92,24.12,3.9,1.13,7.21,2.45,9.13,4.07,1.96,1.65,12.4,17.07,33.71,11.11,5.09-1.42,10.09-3.49,14.5-6.4,7.8-5.16,13.46-15.21,23.73-17.32,2.04-.42,4.18,1.01,6.21,.56,3.02-.66,6.05-1.85,8.47-3.77,3.73-2.95,7-6.57,9.6-10.55,6.74-10.29,11.27-24.69,16.01-36.15,2.05-4.96,3.84-10.06,6.4-14.78,2.74-5.06,5.19-7.7,7.19-10.41,1.04-6.91,1.58-13.99,1.58-21.2,0-27.19-7.7-52.58-21.03-74.12,.15,.54,.31,1.08,.49,1.64,1.05,3.28,2.45,6.44,3.58,9.7,3.9,11.3,12.67,33.52,7.16,44.91-2.15,4.44-6.62,6.46-6.78,12.62-.11,4.04,.33,10.74-1.39,13.31-4.1,6.14-11.46,8.95-20.08,15.69-1.51,1.18-3.99,3.46-6.99,5.94h0Zm-82.08,57.08c.57,2.3-.28,5.11-1.88,6.85-2.08,2.25-5.25,3.36-8.21,4.11-2.5,.63-11.32,.65-13.35-1.03-2.76-2.27-2.95-11.2,3.76-12.32,2.82-.47,5.71,.53,8.56,.34,2.27-.15,4.44-1.78,6.67-1.37,1.84,.34,4,1.61,4.45,3.42h0Zm60.62-37.03c1.13-.29,2.51,.09,3.39,.85,2,1.72,2.81,7.59,1.88,8.94-1.74,2.53-8.13,4.21-11.77,3.58-.88-.15-1.61-1.18-1.7-2.07-.4-3.95,2.95-9.98,8.19-11.3h0Z"/>
        <path class="cls-3" d="M42.35,154.28c.64,16.83-2.11,31.28,5.27,48.02,4.09,9.28,16.07,12.05,25.23,12.05,3.94,0,7.74-.95,11.68-1.13,4.62-.21,15.48,1.15,16.38,6.78,.94,5.84-1.02,12.27,1.32,17.7,.97,2.25,2.48,4.23,4.28,5.98,6.62,6.46,9.3,5.53,18.24,6.88,6.11,.92,24.51,2.93,29.83,5.96,7.6,4.33,12.15,12.78,23.35,16.57,6.44,2.18,27.64-5.11,33.14-10.55,6.79-6.71,9.77-12.39,16.19-15.06,3.48-1.45,5.42,3.87,14.5-.94,2.81-1.49,5.74-3.51,7.91-5.84,17.93-19.25,20.14-44.8,32.09-69.34-1.42,1.86-2.99,4.05-4.67,7.14-2.56,4.72-4.35,9.82-6.4,14.78-4.74,11.46-9.26,25.86-16.01,36.15-2.61,3.98-5.88,7.59-9.6,10.55-2.42,1.92-5.45,3.11-8.47,3.77-2.03,.44-4.18-.98-6.21-.56-10.27,2.11-15.93,12.17-23.73,17.32-4.41,2.91-9.41,4.98-14.5,6.4-21.3,5.96-31.75-9.46-33.71-11.11-6.09-5.13-26.25-7.34-34.84-9.6-20.47-5.4-17.61-21.09-18.64-25.23-1.31-5.23-4-7.99-7.16-9.6-3.24-1.66-23.21-3.43-29.19-6.21-15.21-7.09-20.68-21.96-22.78-43.78-.65-6.69-2.71-19-4.05-21.28-3.06-5.19-9.06-7.64-14.5-6.31-2.41,.59-9.73,4.68-14.55,7.25-1.56,.83-3.83,.81-5.18-.47-2.9-2.76-5.01-10.35-5.33-16.68-.18,1.11-.33,2.23-.47,3.35,.19,4.8,.43,10.65,1.68,14.61,1.25,3.92,6.63,7.14,10.07,4.61,3.99-2.93,7.12-7.86,11.49-10.55,1.16-.71,2.51-1.16,3.86-1.32,10.76-1.29,13.18,12.28,13.46,19.68h0Z"/>
        <path class="cls-11" d="M174.47,179.25c-1.16,.2-1.85-2.21-1.83-3.65,.01-.95,.36-3.09,.86-5.16-1.25,3.47-2.93,8.58-2.14,11.38,.42,1.5,3.84,2.39,5.93,1.84,3.82-1.01,7.44-2.71,11.2-3.91,3.15-1,10.66-2.39,12.95-3.44,.8-.37,1.46-1.03,1.98-1.74,.16-.22,.26-.76,.32-1.27-.41,1.01-1.39,1.78-2.28,1.98-3.49,.78-7.38,.75-10.89,1.27-5.5,.81-12.31,2.07-16.09,2.71h0Z"/>
        <path class="cls-10" d="M49.94,84.09c1.15,3.72,7.08,5.89,9.89,3.62,4.13-3.33,8.28-6.59,12.83-9.28-1.02,.38-2.11,.6-3.09,1.07-3.85,1.85-7.3,4.8-11.39,5.87-1.58,.41-3.43-.52-4.42-1.75-2.03-2.5,.56-7.31,4.01-10.47-3.51,2.73-8.81,7.72-7.82,10.93h0Z"/>
        <path class="cls-8" d="M97.71,87.19c2.44,3.86,5.03,7.24,6.93,8.62,.63,.46,1.77,.52,2.35,0,1.08-.96,1.09-2.72,1.98-3.86,.54-.7,1.8-.7,2.17-1.51,.38-.84,.69-1.78,.95-2.78,1.02-3.95,1.22-8.97,1.27-13.36-.3,3.02-.97,6.01-1.72,8.89-.4,1.56-1.09,3.29-2.17,4.34-.32,.32-.69,.57-1.08,.74-1.37,.59-3.12,.04-4.45-.95-.24-.17-.46-.36-.67-.56-4.51-4.32-9.09-9-11.96-14.88-.43-.89-.49-1.96-.3-3.01-.29,1.02-.57,2.17-.48,2.96,.34,2.97,3.61,9.68,7.2,15.34h0Z"/>
        <path class="cls-13" d="M119.79,98.82c-2.29,6.54-3.65,13.53-3.1,18.46,.24,2.16,1.41,4.12,1.98,6.21,.82,3.02,.82,6.31,2.17,9.13,3.43,7.19,15.16,8.57,21.84,5.65,3.05-1.34,3.69-5.05,3.83-8.22-.4,2-2.19,3.91-4.11,4.55-4.61,1.54-13.9-1.56-16.27-5.82-3.36-6.04-5.28-12.92-6.32-19.75-.39-2.54-.55-6.46-.02-10.21h0Z"/>
        <path class="cls-6" d="M53.98,38.24c-1.14,2.38-1.92,4.34-4.09,6.63-7.32,7.71-23.32,16-23.73,27.77-.06,1.85,1.16,3.61,1.04,5.46-.26,3.67-1.53,7.2-2.17,10.83-.92,5.27,1.48,11.95,7.91,10.36,3.5-.87,10.58-3.33,11.49-3.11,3.44,.87,7.65,5.14,11.86,4.71,6.76-.7,12.49-6.81,18.17-8.57,12.34-3.82,25.08,9.38,29.47,21.37,6.39,17.44,13.05,39.55,18.92,43.5,3.53,2.37,9.95,3.74,11.91,5.08,6.37,4.39,10.27,18.47,14.36,23.44,4.53,5.52,11.01,7.99,18.83,5.84,6.29-1.73,18.74-4.4,22.78-4.9,11.12-1.37,32.51,.72,37.66-1.69,8-3.75,16.05-11.7,19.4-14.31,8.62-6.74,15.98-9.55,20.08-15.69,1.72-2.57,1.28-9.27,1.39-13.31,.16-6.16,4.63-8.17,6.78-12.62,5.52-11.39-3.25-33.61-7.16-44.91-1.12-3.26-2.53-6.42-3.58-9.7-.72-2.24-1.19-4.3-1.65-6.34-1.04-4.65-6.98-18.08-13.88-24.21-5.8-5.15-14.88-7.44-21.22-12.27C204.46,13.25,168.25,1.26,145.25,.01c-6.88-.37-28.68,6.99-42.26,11.22-14.18,4.42-28.55,8.7-40.48,17-3.83,2.66-6.51,5.81-8.53,10.01h0ZM12.75,141.04c-1.56,.83-3.83,.81-5.18-.47-2.9-2.76-5.01-10.35-5.33-16.68-1.2,7.5-1.37,15.2-1.82,23.02-1.14,19.63,.19,35.76,1.92,41.74,2.15,7.45,11.81,23.86,27.04,45.04,10.61,14.75,27.23,33.55,34.42,37.2,11.08,5.62,53.43,18.4,81.07,18.4,11.2,0,22.82-.7,34.02-2.51,11.82-1.92,28.57-5.59,33.66-8.31,11.22-6,29.99-23.52,42.09-38.45,9.11-11.24,24.75-31.69,26.14-35.51,1.94-5.36,7.61-33.52,8.4-50.98-1.38,14.44-6.03,13.81-12.09,24.99-2.56,4.72-4.35,9.82-6.4,14.78-4.74,11.46-9.26,25.86-16.01,36.15-2.61,3.98-5.88,7.59-9.6,10.55-2.42,1.92-5.45,3.11-8.47,3.77-2.03,.44-4.18-.98-6.21-.56-10.27,2.11-15.93,12.17-23.73,17.32-4.41,2.91-9.41,4.98-14.5,6.4-21.3,5.96-31.75-9.46-33.71-11.11-6.09-5.13-26.25-7.34-34.84-9.6-20.47-5.4-17.61-21.09-18.64-25.23-1.31-5.23-4-7.99-7.16-9.6-3.24-1.66-23.21-3.43-29.19-6.21-15.21-7.09-20.68-21.96-22.78-43.78-.65-6.69-2.71-19-4.05-21.28-3.06-5.19-9.06-7.64-14.5-6.31-2.41,.59-9.73,4.68-14.55,7.25h0Zm162.58,24.63c-1.27,1.16-2.67,7.99-2.69,9.93-.02,1.44,.67,3.85,1.83,3.65,3.78-.64,10.59-1.9,16.09-2.71,3.51-.52,7.4-.49,10.89-1.27,1.03-.23,2.19-1.23,2.43-2.48,.31-1.61-3.9-7.08-5.61-7.81-5.22-2.23-18.62-3.24-22.93,.69h0Zm-47.94-77.39c-8.14,.58-8.51,14.64-7.58,20.74,1.04,6.83,2.95,13.71,6.32,19.75,2.38,4.26,11.66,7.37,16.27,5.82,2.06-.69,3.99-2.85,4.17-5.02,.44-5.21-2.48-10.27-2.43-15.5,.05-5.32,3.88-17.06,1.25-19.44-4.69-4.25-12.38-6.76-18.01-6.36h0Zm-28.4-25.81c-2.25,.1-4.77,.78-6.29,2.64-1.37,1.68-2.42,4.7-1.4,6.78,2.86,5.87,7.45,10.55,11.96,14.88,1.37,1.31,3.51,2.2,5.12,1.51,1.73-.74,2.73-3.05,3.26-5.08,1.2-4.66,2.21-9.6,1.79-14.5-.17-1.91-1.84-3.65-3.42-4.33-3.5-1.51-7.34-2.04-11.02-1.88h0Zm-36.02,7.67c-5.04,.95-12.25,9.75-9.23,13.48,.99,1.22,2.84,2.16,4.42,1.75,4.1-1.07,7.55-4.02,11.39-5.87,1.43-.69,3.11-.84,4.43-1.74,2.3-1.57,1.25-6.04-.28-6.67-3.28-1.35-7.15-1.61-10.73-.94h0Z"/>
      </g>
    </g>
  </g>
</svg>